<?xml version="1.0" standalone="no"?>
<!DOCTYPE svg PUBLIC "-//W3C//DTD SVG 1.1//EN" "http://www.w3.org/Graphics/SVG/1.1/DTD/svg11.dtd" >
<svg xmlns="http://www.w3.org/2000/svg" xmlns:xlink="http://www.w3.org/1999/xlink" version="1.1">
<metadata></metadata>
<defs>
<font id="gabrielaregular" horiz-adv-x="1501" >
<font-face units-per-em="2048" ascent="1638" descent="-410" />
<missing-glyph horiz-adv-x="563" />
<glyph horiz-adv-x="0" />
<glyph unicode="&#xd;" horiz-adv-x="563" />
<glyph horiz-adv-x="0" />
<glyph horiz-adv-x="0" />
<glyph unicode=" "  horiz-adv-x="563" />
<glyph unicode="&#x09;" horiz-adv-x="563" />
<glyph unicode="&#xa0;" horiz-adv-x="563" />
<glyph unicode="!" horiz-adv-x="503" d="M123 1520q45 51 129 51q80 0 129 -51q0 -117 -22.5 -406t-55.5 -616q-10 -92 -51 -92t-51 92q-33 328 -55.5 616.5t-22.5 405.5zM127 104q0 39 44 87.5t81 48.5q39 0 84 -47.5t45 -88.5q0 -39 -45 -86t-84 -47q-35 0 -80 47.5t-45 85.5z" />
<glyph unicode="&#x22;" horiz-adv-x="702" d="M78 1647q37 61 104 61q68 0 105 -61q0 -61 -17.5 -188.5t-46.5 -248.5q-10 -39 -41 -39t-41 39q-27 109 -45 239t-18 198zM416 1647q37 61 104 61q68 0 105 -61q0 -61 -17.5 -188.5t-46.5 -248.5q-10 -39 -41 -39t-41 39q-27 109 -45 239t-18 198z" />
<glyph unicode="#" horiz-adv-x="1425" d="M102 459l37 135h205l76 274h-203l37 136h205l129 466h147l-129 -466h365l129 466h147l-129 -466h205l-39 -136h-205l-75 -274h204l-39 -135h-204l-127 -459h-146l127 459h-366l-127 -459h-146l127 459h-205zM492 594h364l76 274h-365z" />
<glyph unicode="$" horiz-adv-x="1189" d="M111 332q0 96 62.5 156.5t156.5 60.5q27 0 35 -4t8 -21q0 -6 -17.5 -32.5t-31 -61.5t-13.5 -82q0 -109 81 -171t194 -62q102 0 176 62.5t74 168.5q0 72 -40 122t-98.5 84t-160.5 79q-129 57 -209 106t-136.5 134t-56.5 212q0 92 42 177.5t129 142.5t212 65v269 q20 25 56 37t73 12v-322q143 -16 237.5 -87.5t94.5 -186.5q0 -94 -63.5 -155.5t-155.5 -61.5q-25 0 -34 4t-9 20q0 6 17.5 33t30.5 61.5t13 82.5q0 86 -63.5 134t-147.5 48q-115 0 -176 -65.5t-61 -153.5q0 -94 45 -156.5t112.5 -101.5t180.5 -88q125 -53 198.5 -97.5 t124.5 -121t51 -191.5q0 -154 -108.5 -258.5t-286.5 -120.5v-266q-18 -25 -54 -37t-75 -12v315q-174 14 -290.5 100t-116.5 230z" />
<glyph unicode="%" horiz-adv-x="1890" d="M31 1040q0 127 46 232.5t133 167t202 61.5q168 0 261 -123t93 -313q0 -135 -46 -247t-133 -177.5t-206 -65.5q-180 0 -265 137.5t-85 327.5zM203 1038q0 -162 49 -264t146 -102q94 0 144 103t50 263t-50 263.5t-144 103.5q-96 0 -145.5 -103.5t-49.5 -263.5zM522 0 l612 1470h148l-615 -1470h-145zM1104 436q0 127 46 232.5t133 167t202 61.5q168 0 261 -123t93 -313q0 -135 -46 -247t-133 -177.5t-206 -65.5q-180 0 -265 137.5t-85 327.5zM1276 434q0 -162 49 -264t146 -102q94 0 144 103t50 263t-50 263.5t-144 103.5 q-96 0 -145.5 -103.5t-49.5 -263.5z" />
<glyph unicode="&#x26;" horiz-adv-x="1368" d="M61 393q0 139 96.5 244.5t276.5 153.5q-137 33 -214 117.5t-77 221.5q0 96 57.5 180.5t172 136.5t276.5 52q94 0 173 -31.5t125 -87t46 -127.5q0 -80 -48 -129t-130 -49q-43 0 -43 21q0 4 21.5 37.5t21.5 99.5q0 78 -50 125t-138 47q-121 0 -189.5 -78t-68.5 -184 q0 -137 71.5 -212t177.5 -75q12 0 20.5 -14.5t8.5 -30.5q0 -14 -7 -27.5t-19 -13.5q-162 -41 -244 -144.5t-82 -230.5q0 -80 37 -152.5t104.5 -117.5t159.5 -45q139 0 227 73.5t88 206.5q0 100 -49 168l-78 -2q-92 -8 -138 -32.5t-69.5 -49t-31.5 -24.5q-16 0 -30.5 21.5 t-14.5 43.5q0 74 76.5 97.5t230.5 31.5q117 6 189.5 18.5t122.5 50.5t50 110q0 59 -22.5 93t-59.5 68q-27 23 -26 33q0 14 28.5 22.5t61.5 8.5q90 0 153.5 -58.5t63.5 -152.5q0 -238 -405 -270q45 -41 71.5 -96.5t26.5 -116.5q0 -86 -48 -167t-155.5 -133.5t-273.5 -52.5 q-240 0 -381.5 112t-141.5 310z" />
<glyph unicode="'" horiz-adv-x="364" d="M78 1647q37 61 104 61q68 0 105 -61q0 -61 -17.5 -188.5t-46.5 -248.5q-10 -39 -41 -39t-41 39q-27 109 -45 239t-18 198z" />
<glyph unicode="(" horiz-adv-x="720" d="M119 678q0 342 139 570.5t399 336.5v-92q-143 -94 -230 -305t-87 -510t87 -510t230 -305v-92q-260 109 -399 337t-139 570z" />
<glyph unicode=")" horiz-adv-x="720" d="M63 -137q143 94 230.5 305t87.5 510t-87 510t-231 305v92q260 -109 399.5 -337t139.5 -570t-139 -570.5t-400 -336.5v92z" />
<glyph unicode="*" horiz-adv-x="1175" d="M143 1341q0 45 27 78t70 43q59 -35 127.5 -70.5t101.5 -54.5l78 -41l-19 103l-45 239q37 61 105 62q68 0 104 -62l-45 -239l-18 -103l55 29q45 25 106.5 57.5t145.5 77.5q45 -10 70.5 -40.5t25.5 -73.5q0 -45 -31 -82q-84 -8 -272 -37l-76 -10l84 -80l168 -160 q0 -59 -32.5 -97t-81.5 -38q-27 0 -52 12q-35 76 -92 190q-53 111 -59 125l-43 -88q-59 -115 -109 -225q-29 -12 -53 -12q-55 0 -85 40t-30 93q37 33 178 168q53 53 74 72q-14 2 -34.5 5t-45.5 7q-145 20 -264 35q-33 35 -33 77z" />
<glyph unicode="+" horiz-adv-x="1271" d="M203 653v156h356v356h154v-356h356v-156h-356v-354h-154v354h-356z" />
<glyph unicode="," horiz-adv-x="391" d="M14 -213l95 184q25 49 24 84q0 41 -47 76l-37 25l-10 49l35 14q63 25 114 25q59 0 96.5 -33t37.5 -105q0 -57 -42 -119.5t-126 -152.5l-80 -86z" />
<glyph unicode="-" horiz-adv-x="727" d="M68 516q0 41 13 82t40 61l538 21q0 -43 -12 -83t-41 -60z" />
<glyph unicode="." horiz-adv-x="391" d="M68 104q0 39 44 87.5t81 48.5q39 0 84 -47.5t45 -88.5q0 -39 -45.5 -86t-83.5 -47q-35 0 -80 47.5t-45 85.5z" />
<glyph unicode="/" horiz-adv-x="759" d="M0 -129l612 1728h148l-615 -1728h-145z" />
<glyph unicode="0" horiz-adv-x="1419" d="M123 737q0 211 74.5 385t214 275.5t323.5 101.5q180 0 306 -94t190.5 -258t64.5 -369q0 -221 -72.5 -405.5t-212 -293t-327.5 -108.5q-199 0 -325 111t-181 285t-55 370zM340 733q0 -282 94 -463.5t275 -181.5q119 0 201.5 85t124.5 231.5t42 328.5t-42 329.5t-125 233.5 t-201 86q-180 0 -274.5 -182t-94.5 -467z" />
<glyph unicode="1" horiz-adv-x="856" d="M0 1239l567 264q49 -12 82 -76l-53 -34v-981q0 -123 20.5 -199t71.5 -143l27 -37l-27 -33h-489l-25 70l88 22q55 14 82 31.5t38 51.5t11 97v988l-252 -160q-43 8 -80.5 49t-60.5 90z" />
<glyph unicode="2" horiz-adv-x="1220" d="M76 104q328 268 497.5 446.5t230 305.5t60.5 262q0 127 -78.5 196.5t-187.5 69.5q-111 0 -191.5 -68.5t-80.5 -191.5q0 -51 13 -84.5t30.5 -59.5t17.5 -32q0 -16 -9 -20t-34 -4q-94 0 -156.5 60t-62.5 157q0 115 66.5 195.5t175 121.5t233.5 41q229 0 364.5 -100.5 t135.5 -282.5q0 -199 -194.5 -423t-543.5 -507h777q0 -55 -16.5 -106t-53.5 -80h-938z" />
<glyph unicode="3" horiz-adv-x="1220" d="M117 303q0 96 62.5 156.5t156.5 60.5q25 0 34 -4t9 -20q0 -6 -17.5 -33t-31 -61.5t-13.5 -82.5q0 -100 80 -159.5t189 -59.5q121 0 210 75t89 214q0 119 -75 214t-275 95q-70 0 -113 -10t-53 -10q-29 0 -29 37q0 27 18.5 40t94.5 27q233 43 311 139.5t78 211.5 q0 121 -77 187t-181 66q-94 0 -161 -56t-67 -156q0 -51 13.5 -85t31 -59.5t17.5 -32.5q0 -25 -43 -24q-94 0 -156.5 60.5t-62.5 156.5q0 98 60 169t158.5 105.5t213.5 34.5q121 0 230.5 -40t178 -121t68.5 -193q0 -260 -303 -375q168 -37 257 -143.5t89 -249.5 q0 -193 -139.5 -299.5t-376.5 -106.5q-125 0 -233.5 38t-175 113t-66.5 181z" />
<glyph unicode="4" horiz-adv-x="1245" d="M61 332l476 1138h129l39 -32l-443 -977h526v278q0 66 -9 105t-36 82l25 30l225 25v-520h191q0 -92 -47 -129h-142q4 -84 25.5 -144.5t64.5 -117.5l27 -37l-27 -33h-489l-25 70l88 22q55 14 82 31.5t37 50.5t10 98v60h-727z" />
<glyph unicode="5" horiz-adv-x="1220" d="M117 303q0 96 62.5 156.5t156.5 60.5q25 0 34 -4t9 -20q0 -6 -17.5 -33t-31 -61.5t-13.5 -82.5q0 -100 80 -159.5t189 -59.5q78 0 145.5 34t110.5 100.5t43 160.5q0 135 -90 239.5t-336 104.5q-86 0 -215 -26l-43 75l37 682h796q0 -55 -16.5 -106t-52.5 -80h-603 l-24 -461q129 29 252 29q174 0 290.5 -63.5t172 -167t55.5 -226.5q0 -129 -63.5 -225t-180 -147.5t-272.5 -51.5q-125 0 -233.5 38t-175 113t-66.5 181z" />
<glyph unicode="6" horiz-adv-x="1323" d="M119 672q0 231 70.5 418.5t211 298t342.5 110.5q117 0 209 -34.5t144.5 -98t52.5 -143.5q0 -104 -62.5 -172t-156.5 -68q-43 0 -43 25q0 6 18.5 33.5t30.5 59.5t12 75q0 96 -57 151t-154 55q-141 0 -230 -106.5t-128 -268t-39 -339.5q0 -66 2 -97q41 131 147.5 209 t270.5 78q203 0 309.5 -115.5t106.5 -296.5q0 -133 -55.5 -240.5t-166 -171t-268.5 -63.5q-182 0 -310 94.5t-192.5 254t-64.5 352.5zM420 399q0 -133 58.5 -216t178.5 -83q129 0 200 87t71 229q0 133 -60.5 218t-181.5 85q-127 0 -196.5 -93.5t-69.5 -226.5z" />
<glyph unicode="7" horiz-adv-x="1015" d="M4 1470h993l-417 -1060q-48 -123 -48 -215q0 -70 29 -125l19 -37l-39 -33h-377l-25 70l47 12q82 23 125 65.5t80 137.5l389 999h-706q-37 29 -53.5 80t-16.5 106z" />
<glyph unicode="8" horiz-adv-x="1261" d="M111 340q0 221 272 385q-119 66 -177.5 152t-58.5 213q0 109 51.5 204t158 153t259.5 58q221 0 359.5 -92t138.5 -285q0 -114 -70.5 -205.5t-181.5 -158.5q147 -76 218 -173t71 -224q0 -119 -64.5 -210t-185.5 -141.5t-287 -50.5q-225 0 -364 91t-139 284zM328 346 q0 -119 76.5 -192.5t211.5 -73.5q137 0 223.5 62.5t86.5 170.5q0 100 -51.5 157.5t-174.5 111.5l-219 96q-75 -80 -114 -166t-39 -166zM358 1151q0 -84 60.5 -148.5t210.5 -130.5l127 -57q68 78 102.5 159t34.5 156q0 115 -74 188t-203 73q-75 0 -133.5 -34t-91.5 -89.5 t-33 -116.5z" />
<glyph unicode="9" horiz-adv-x="1323" d="M158 993q0 129 57 245t170 188.5t272 72.5q263 0 391 -224t128 -579q0 -207 -63.5 -370.5t-194 -259t-320.5 -95.5q-117 0 -210 37t-145.5 102.5t-52.5 147.5q0 84 57.5 135t147.5 51q45 0 45 -24q0 -6 -15 -32t-25.5 -53.5t-10.5 -64.5q0 -84 57.5 -133t149.5 -49 q190 0 276 174t86 428q0 76 -2 111q-53 -109 -156.5 -172.5t-242.5 -63.5q-127 0 -217 59.5t-136 158t-46 210.5zM403 1038q0 -133 66 -229t182 -96q133 0 206 95t73 228t-67.5 231.5t-188.5 98.5q-129 0 -200 -97.5t-71 -230.5z" />
<glyph unicode=":" horiz-adv-x="391" d="M68 104q0 39 44 87.5t81 48.5q39 0 84 -47.5t45 -88.5q0 -39 -45.5 -86t-83.5 -47q-35 0 -80 47.5t-45 85.5zM68 841q0 39 44 87.5t81 48.5q39 0 84 -47.5t45 -88.5q0 -39 -45.5 -86t-83.5 -47q-35 0 -80 47.5t-45 85.5z" />
<glyph unicode=";" horiz-adv-x="391" d="M14 -213l95 184q25 49 24 84q0 41 -47 76l-37 25l-10 49l35 14q63 25 114 25q59 0 96.5 -33t37.5 -105q0 -57 -42 -119.5t-126 -152.5l-80 -86zM68 841q0 39 44 87.5t81 48.5q39 0 84 -47.5t45 -88.5q0 -39 -45.5 -86t-83.5 -47q-35 0 -80 47.5t-45 85.5z" />
<glyph unicode="&#x3c;" horiz-adv-x="1271" d="M203 653v156l866 350v-155l-692 -273l692 -272v-156z" />
<glyph unicode="=" horiz-adv-x="1271" d="M203 432v156h866v-156h-866zM203 874v156h866v-156h-866z" />
<glyph unicode="&#x3e;" horiz-adv-x="1271" d="M203 303v156l692 272l-692 273v155l866 -350v-156z" />
<glyph unicode="?" horiz-adv-x="1101" d="M104 1270q0 82 55.5 147.5t154 101t223.5 35.5q119 0 218 -42t157.5 -122.5t58.5 -193.5q0 -217 -289 -494q-80 -75 -117 -119t-53 -102l-10 -39h-39l-125 127q168 147 256 259t115.5 193t27.5 163q0 125 -67.5 189.5t-182.5 64.5q-88 0 -140 -48.5t-52 -129.5 q0 -53 11 -86t24.5 -54.5t13.5 -27.5q0 -23 -39 -23q-88 0 -144.5 56.5t-56.5 144.5zM352 104q0 39 44 87.5t81 48.5q39 0 84 -47.5t45 -88.5q0 -39 -45 -86t-84 -47q-35 0 -80 47.5t-45 85.5z" />
<glyph unicode="@" horiz-adv-x="1826" d="M113 512q0 233 115.5 433t315 318.5t437.5 118.5q217 0 384 -97t258 -265t91 -375q0 -133 -51 -265t-151.5 -219t-239.5 -87q-111 0 -179.5 70.5t-68.5 199.5q-63 -76 -142 -117t-151 -41q-111 0 -182.5 88t-71.5 250q0 158 56.5 276t159 181t235.5 63q55 0 125.5 -10 t87.5 -12q66 -12 127 -18l16 -25l-18 -33q-23 -31 -25 -59q-45 -514 -45 -539q0 -80 30.5 -124t76.5 -44q45 0 94 53.5t84 160t35 257.5q0 178 -65 317.5t-187.5 218.5t-292.5 79q-190 0 -342 -101.5t-236 -274.5t-84 -382q0 -178 65.5 -318.5t189.5 -219.5t294 -79 q109 0 198 20.5t171 72.5l49 -86q-102 -61 -205.5 -92t-222.5 -31q-219 0 -386 97t-258 265t-91 375zM678 575q0 -104 45 -168.5t113 -64.5q43 0 92 32t94 95l35 410q-61 47 -131 47q-80 0 -136.5 -51.5t-84 -131t-27.5 -168.5z" />
<glyph unicode="A" horiz-adv-x="1445" d="M-33 70l47 12q82 23 119 59.5t70 130.5l321 926q23 68 23 100q0 37 -21.5 57.5t-70.5 33.5l-47 12l24 69h395l412 -1187q33 -94 72 -143.5t112 -106.5l-26 -33h-461l-25 70l47 12q49 12 71 32.5t22 57.5q0 33 -23 100l-98 287h-473l-49 -149q-47 -141 -48 -215 q0 -70 29 -125l19 -37l-39 -33h-377zM500 686h387l-197 574z" />
<glyph unicode="B" horiz-adv-x="1333" d="M82 1409q88 35 231.5 62.5t276.5 27.5q281 0 418 -112.5t137 -290.5q0 -115 -54.5 -207t-160.5 -144q137 -45 214 -137t77 -205q0 -186 -127 -294.5t-406 -108.5h-571l-25 70l47 12q78 23 104.5 59.5t26.5 130.5v1012q0 27 -10 38t-35 11h-119zM473 375 q0 -168 67.5 -218.5t159.5 -50.5q143 0 225.5 85t82.5 223q0 78 -40 142.5t-114 103t-172 38.5q-35 0 -73 8.5t-60 18.5q-31 14 -31 45q0 37 29 37q8 0 33.5 -7t68.5 -7q139 0 216 81.5t77 217.5q0 129 -87 210.5t-245 81.5q-137 0 -137 -94v-915z" />
<glyph unicode="C" horiz-adv-x="1263" d="M72 733q0 217 73.5 390t222 274.5t365.5 101.5q133 0 238.5 -38t164 -106.5t58.5 -156.5q0 -104 -62.5 -172t-156.5 -68q-43 0 -43 25q0 6 17.5 35t30.5 64.5t13 86.5q0 96 -71.5 155.5t-188.5 59.5q-152 0 -248 -94t-139 -241.5t-43 -315.5q0 -172 54.5 -313t154.5 -224 t233 -83q131 0 227.5 48t157.5 136q6 8 15 8q18 0 41.5 -19.5t23.5 -37.5q0 -6 -6 -17q-176 -260 -477 -260q-213 0 -360.5 100.5t-221 273.5t-73.5 388z" />
<glyph unicode="D" d="M72 1409q98 35 253.5 62.5t301.5 27.5q428 0 615.5 -212t187.5 -554q0 -209 -77 -374.5t-229.5 -262t-373.5 -96.5h-644l-24 70l47 12q66 18 98.5 54t32.5 114v1034q0 27 -10 38t-35 11h-119zM463 358q0 -145 60.5 -199.5t160.5 -54.5q522 0 522 633q0 172 -59.5 319.5 t-181 237.5t-301.5 90q-201 0 -201 -94v-932z" />
<glyph unicode="E" horiz-adv-x="1249" d="M92 66l43 12q76 23 100.5 57.5t24.5 122.5v801q0 123 -20.5 198.5t-71.5 143.5l-27 37l27 32h627q176 0 233 43l37 27l33 -27v-364l-70 -25l-12 47q-20 76 -44 114t-65 53.5t-114 15.5h-199q-55 0 -83 -12.5t-38 -45t-10 -98.5v-393h260q49 0 87 21.5t75 72.5l16 23 l41 -23v-350l-70 -25l-12 47q-18 70 -64 93.5t-159 23.5h-174v-416q0 -66 10 -98.5t38 -44.5t83 -12h221q74 0 115 15t64.5 53t43.5 114l13 47l69 -24v-351l-41 -22l-16 22q-23 29 -86 29h-862z" />
<glyph unicode="F" horiz-adv-x="1120" d="M92 33l27 37q51 68 71.5 143.5t20.5 198.5v647q0 123 -20.5 198.5t-71.5 143.5l-27 37l27 32h606q176 0 233 43l37 27l33 -27v-364l-70 -25l-12 47q-20 76 -43.5 114t-64.5 53.5t-115 15.5h-178q-55 0 -83 -12.5t-38 -45t-10 -98.5v-414h239q49 0 87 21.5t75 73.5l16 22 l41 -22v-351l-69 -24l-12 47q-18 70 -64.5 93.5t-159.5 23.5h-153v-396q0 -94 26.5 -131t104.5 -59l47 -12l-25 -70h-448z" />
<glyph unicode="G" horiz-adv-x="1415" d="M72 770q0 199 75.5 364.5t228 265t374.5 99.5q143 0 254.5 -41t175 -113.5t63.5 -166.5q0 -104 -62.5 -172t-156.5 -68q-31 0 -37 4t-6 21q0 6 17.5 34.5t30.5 64.5t13 87q0 104 -80.5 169.5t-211.5 65.5q-162 0 -264.5 -92t-147.5 -229t-45 -283q0 -170 52 -310 t150.5 -222t229.5 -82q203 0 342 139v105q0 94 -26.5 131t-104.5 59l-47 12l24 70h430l27 -33l-27 -37q-51 -68 -71.5 -143.5t-20.5 -198.5v-237q0 -602 -487 -602q-121 0 -205 42t-126 108.5t-42 142.5q0 102 69.5 174.5t190.5 72.5q20 0 29.5 -7t9.5 -15t-28.5 -39 t-50 -74t-21.5 -108q0 -82 56 -136.5t153 -54.5q133 0 200.5 102.5t67.5 335.5v193q-159 -133 -360 -133q-207 0 -350.5 96t-214 263t-70.5 376z" />
<glyph unicode="H" horiz-adv-x="1595" d="M82 70l47 12q78 23 104.5 59.5t26.5 130.5v926q0 94 -26.5 131t-104.5 60l-47 12l24 69h449l27 -32l-27 -37q-51 -68 -71.5 -143.5t-20.5 -198.5v-250h670v389q0 94 -27 131t-105 60l-47 12l25 69h448l27 -32l-27 -37q-51 -68 -71.5 -143.5t-20.5 -198.5v-801 q0 -88 24.5 -123t100.5 -57l43 -12l-22 -66h-502l-25 70l47 12q78 23 105 59.5t27 130.5v412h-670v-426q0 -88 24.5 -123t100.5 -57l43 -12l-23 -66h-502z" />
<glyph unicode="I" horiz-adv-x="722" d="M82 70l47 12q78 23 104.5 59.5t26.5 130.5v926q0 94 -26.5 131t-104.5 60l-47 12l24 69h449l27 -32l-27 -37q-51 -68 -71.5 -143.5t-20.5 -198.5v-801q0 -88 24.5 -123t100.5 -57l43 -12l-23 -66h-502z" />
<glyph unicode="J" horiz-adv-x="960" d="M-41 264q0 102 69.5 175t190.5 73q20 0 29.5 -7t9.5 -16q0 -8 -28.5 -38.5t-50 -73.5t-21.5 -109q0 -82 50 -136t138 -54q211 0 211 280v840q0 94 -26.5 131t-104.5 60l-47 12l24 69h449l27 -32l-27 -37q-51 -68 -71.5 -143.5t-20.5 -198.5v-576q0 -266 -114 -389 t-314 -123q-121 0 -205 42t-126 108.5t-42 142.5z" />
<glyph unicode="K" horiz-adv-x="1368" d="M82 70l47 12q78 23 104.5 59.5t26.5 130.5v926q0 94 -26.5 131t-104.5 60l-47 12l24 69h449l27 -32l-27 -37q-51 -68 -71.5 -143.5t-20.5 -198.5v-801q0 -88 24.5 -123t100.5 -57l43 -12l-23 -66h-502zM512 731q0 18 9 33.5t32 15.5q33 0 49 -2l279 416q27 41 35 64.5 t8 50.5q0 33 -27 92l-18 37l39 32h370l25 -69l-47 -12q-51 -14 -88 -38t-72 -73l-369 -533q88 -41 142 -133l262 -465q18 -30 35.5 -46.5t42.5 -16.5q39 0 79 29l35 -60q-84 -82 -188 -82q-92 0 -155.5 49.5t-119.5 149.5l-243 446q-23 39 -43.5 56.5t-61.5 36.5 q-10 6 -10 22z" />
<glyph unicode="L" horiz-adv-x="1126" d="M82 1401l24 69h449l27 -32l-27 -37q-51 -68 -71.5 -143.5t-20.5 -198.5v-787q0 -65 10 -98t38 -45t83 -12h178q74 0 115 15t64.5 53t43.5 114l13 47l69 -24v-351l-41 -22l-16 22q-23 29 -86 29h-819l-23 66l43 12q76 23 100.5 57.5t24.5 122.5v940q0 94 -26.5 131 t-104.5 60z" />
<glyph unicode="M" horiz-adv-x="1886" d="M31 70l47 12q80 25 109.5 61.5t35.5 128.5l56 811q2 27 6 74t4 84q0 70 -25.5 100.5t-93.5 47.5l-47 12l22 69h373l422 -1030l434 1030h295l31 -32l-25 -37q-39 -57 -56 -115.5t-17 -142.5q0 -31 10 -185l41 -561q10 -127 41.5 -212t99.5 -152l-27 -33h-448l-25 70l47 12 q66 20 91.5 52t25.5 95l-4 76l-59 854l-428 -1012h-111l-428 1012l-45 -631q-12 -143 -12 -200q0 -84 17.5 -142.5t55.5 -115.5l25 -37l-31 -33h-385z" />
<glyph unicode="N" horiz-adv-x="1595" d="M70 70l47 12q78 23 104.5 59.5t26.5 130.5v926q0 94 -26.5 131t-104.5 60l-47 12l24 69h330l782 -1161v889q0 94 -26.5 131t-104.5 60l-47 12l25 69h389l26 -32l-26 -37q-51 -68 -71.5 -143.5t-20.5 -198.5v-879q0 -39 6 -63.5t22 -46.5l27 -37l-27 -33h-207l-780 1157 v-745q0 -123 20.5 -199t71.5 -143l27 -37l-27 -33h-389z" />
<glyph unicode="O" d="M72 733q0 217 75.5 390t228 274.5t374.5 101.5q221 0 373.5 -101.5t229.5 -274.5t77 -390t-77 -389t-229.5 -272.5t-373.5 -100.5t-374 100.5t-228.5 272.5t-75.5 389zM293 717q0 -178 51 -319.5t152.5 -223.5t244.5 -82t249 84t161 228.5t55 322.5q0 147 -42 298 t-142 254t-262 103q-145 0 -251 -89t-161 -240.5t-55 -335.5z" />
<glyph unicode="P" horiz-adv-x="1220" d="M72 1409q88 35 232.5 62.5t277.5 27.5q303 0 450.5 -136t147.5 -351q0 -133 -53.5 -240.5t-164 -172t-274.5 -64.5q-76 0 -128 18t-52 53q0 20 8 34.5t25 14.5q8 0 33.5 -7t66.5 -7q154 0 240 98.5t86 266.5q0 166 -91.5 272t-257.5 106q-156 0 -155 -94v-878 q0 -125 20.5 -200t71.5 -142l27 -37l-27 -33h-449l-24 70l47 12q78 20 104.5 59t26.5 131v1012q0 27 -10 38t-35 11h-119z" />
<glyph unicode="Q" d="M72 733q0 217 75.5 390t228 274.5t374.5 101.5q221 0 373.5 -101.5t229.5 -274.5t77 -390q0 -207 -70 -373.5t-205 -265.5l102 -227q37 -82 88.5 -120t127.5 -38q41 0 73.5 13.5t38.5 13.5q8 0 13.5 -6t5.5 -15q0 -74 -57.5 -122t-133.5 -48q-119 0 -197.5 79t-138.5 212 l-80 174q-117 -39 -247 -39q-221 0 -374 100.5t-228.5 272.5t-75.5 389zM293 717q0 -139 30.5 -256t92.5 -201q-4 14 -4 41q0 102 69.5 160.5t188.5 58.5q113 0 214 -64.5t185 -197.5q66 88 101.5 209t35.5 260q0 147 -42 298t-142 254t-262 103q-145 0 -251 -89 t-161 -240.5t-55 -335.5zM500 272q0 -90 70.5 -135t170.5 -45q106 0 197 51q-66 133 -146.5 195.5t-156.5 62.5q-59 0 -97 -34.5t-38 -94.5z" />
<glyph unicode="R" horiz-adv-x="1310" d="M31 1409q88 35 232.5 62.5t277.5 27.5q303 0 450.5 -125t147.5 -323q0 -152 -84 -264.5t-248 -151.5q45 -31 82 -100l190 -388q33 -63 78 -63q39 0 80 29l35 -60q-85 -82 -189 -82q-100 0 -161.5 57.5t-120.5 182.5l-156 330q-18 41 -46 59t-93 43q-39 14 -39 47 q0 20 8 34.5t25 14.5q8 0 33.5 -7t66.5 -7q154 0 240 87t86 232q0 150 -91.5 245t-256.5 95q-156 0 -156 -94v-878q0 -123 20.5 -198t71.5 -144l27 -37l-27 -33h-448l-25 70l47 12q78 20 104.5 59t26.5 131v1012q0 27 -10 38t-35 11h-119z" />
<glyph unicode="S" horiz-adv-x="1171" d="M92 301q0 104 66.5 172t167.5 68q23 0 33 -7.5t10 -17.5q0 -6 -18.5 -33.5t-33 -64.5t-14.5 -88q0 -109 82 -176.5t213 -67.5q119 0 191.5 61.5t72.5 169.5q0 88 -45 149.5t-111.5 100.5t-181.5 90q-131 59 -209.5 108.5t-134 131.5t-55.5 205q0 104 50 195.5 t150.5 146.5t245.5 55q133 0 238.5 -38t164 -106.5t58.5 -156.5q0 -104 -62.5 -172t-156.5 -68q-43 0 -43 25q0 6 17.5 35t30.5 64.5t13 86.5q0 96 -71.5 155.5t-188.5 59.5q-121 0 -186.5 -68.5t-65.5 -166.5q0 -76 43.5 -131t106.5 -92t176 -88q135 -59 220 -111.5 t144.5 -139.5t59.5 -216q0 -182 -122 -291t-349 -109q-147 0 -262 42t-179.5 117t-64.5 171z" />
<glyph unicode="T" horiz-adv-x="1218" d="M41 1149v364l33 27l37 -27q57 -43 233 -43h530q176 0 234 43l37 27l33 -27v-364l-70 -25l-12 47q-21 76 -44.5 114t-64.5 53.5t-115 15.5h-92q-43 0 -56 -30t-13 -126v-926q0 -94 26.5 -131t104.5 -59l47 -12l-25 -70h-448l-27 33l27 37q51 68 71.5 143.5t20.5 198.5v786 q0 96 -13.5 126t-56.5 30h-92q-74 0 -115 -15.5t-64.5 -53.5t-43.5 -114l-12 -47z" />
<glyph unicode="U" horiz-adv-x="1513" d="M49 1401l25 69h448l27 -32l-27 -37q-51 -68 -71.5 -143.5t-20.5 -198.5v-608q0 -162 102.5 -256.5t258.5 -94.5t258 94.5t102 256.5v747q0 94 -26.5 131t-104.5 60l-47 12l24 69h389l27 -32l-27 -37q-51 -68 -71.5 -143.5t-20.5 -198.5v-608q0 -242 -147.5 -361 t-382.5 -119q-240 0 -388.5 119t-148.5 361v747q0 94 -26.5 131t-104.5 60z" />
<glyph unicode="V" horiz-adv-x="1396" d="M10 1438l27 32h461l24 -69l-47 -12q-49 -12 -70.5 -33t-21.5 -58q0 -33 23 -100l333 -1028l287 891q39 123 39 190q-4 113 -92 138l-47 12l24 69h389l27 -32l-31 -37q-76 -90 -112 -205l-396 -1196h-233l-399 1188q-31 94 -70 143t-115 107z" />
<glyph unicode="W" horiz-adv-x="2226" d="M10 1438l27 32h461l24 -69l-47 -12q-49 -12 -70.5 -33t-21.5 -58q0 -33 23 -100l333 -1028l305 952l-20 66q-31 94 -70 143t-114 107l26 32h461l25 -69l-47 -12q-49 -12 -71 -33t-22 -58q0 -33 23 -100l334 -1028l286 891q39 123 39 190q-4 113 -92 138l-47 12l25 69h389 l26 -32l-30 -37q-76 -90 -113 -205l-395 -1196h-234l-301 893l-295 -893h-233l-399 1188q-31 94 -70 143t-115 107z" />
<glyph unicode="X" horiz-adv-x="1392" d="M20 70l48 12q51 14 88 37.5t71 73.5l367 530l-350 498q-106 147 -187 217l27 32h485l25 -69l-47 -12q-80 -23 -80 -89q0 -53 45 -120l211 -301l211 315q27 41 35 64.5t8 50.5q0 33 -27 92l-18 37l39 32h377l24 -69l-47 -12q-51 -14 -88 -38t-72 -73l-358 -518l369 -522 q53 -76 88.5 -119t89.5 -86l-27 -33h-485l-25 70l47 12q80 23 80 88q0 53 -45 121l-223 313l-217 -328q-27 -41 -35 -64.5t-8 -49.5q0 -33 26 -92l19 -37l-39 -33h-377z" />
<glyph unicode="Y" horiz-adv-x="1282" d="M10 1438l27 32h461l24 -69l-47 -12q-49 -12 -70.5 -33t-21.5 -58q0 -23 28.5 -70.5t34.5 -58.5l222 -387l231 414q25 47 25 84q0 41 -26 69.5t-60 39.5l-47 12l24 69h389l27 -32l-31 -37q-72 -86 -145 -217l-318 -563v-349q0 -92 29 -131t106 -59l48 -12l-25 -70h-449 l-26 33l26 37q51 72 74 146.5t23 195.5v192l-328 576q-55 98 -98 153.5t-107 104.5z" />
<glyph unicode="Z" horiz-adv-x="1208" d="M41 0l813 1354h-432q-74 0 -115 -15.5t-64.5 -53.5t-43.5 -114l-13 -47l-69 25v364l33 27l36 -27q57 -43 234 -43h747l-809 -1353h463q74 0 115 15t64.5 53t43.5 114l13 47l69 -24v-351l-41 -22l-16 22q-23 29 -86 29h-942z" />
<glyph unicode="[" horiz-adv-x="792" d="M258 -229v1814h479v-98l-164 -25q-61 -10 -86.5 -32.5t-25.5 -75.5v-1352q0 -53 25.5 -75.5t86.5 -32.5l164 -25v-98h-479z" />
<glyph unicode="\" horiz-adv-x="759" d="M0 1599h147l613 -1728h-146z" />
<glyph unicode="]" horiz-adv-x="792" d="M55 -131l164 25q61 10 87 32.5t26 75.5v1352q0 53 -25.5 75.5t-87.5 32.5l-164 25v98h480v-1814h-480v98z" />
<glyph unicode="^" horiz-adv-x="1271" d="M197 815l350 655h176l350 -655h-166l-274 522l-271 -522h-165z" />
<glyph unicode="_" horiz-adv-x="727" d="M-53 -172q0 41 13 82t40 61h780q0 -43 -12 -83t-41 -60h-780z" />
<glyph unicode="`" horiz-adv-x="589" d="M111 1427q0 43 23.5 77t62.5 52l319 -319l-59 -72l-232 115q-61 31 -87.5 66.5t-26.5 80.5z" />
<glyph unicode="a" horiz-adv-x="1236" d="M92 469q0 176 64.5 306t184.5 199.5t282 69.5q80 0 225 -26q123 -20 184 -25l23 -26l-25 -37q-14 -20 -20 -38t-6 -42v-670q0 -63 61 -63q51 0 102 37l39 -54q-53 -59 -114.5 -94t-112.5 -35q-84 0 -121 51.5t-37 165.5q-84 -118 -172 -167.5t-190 -49.5q-98 0 -182 56.5 t-134.5 169t-50.5 272.5zM307 508q0 -195 66.5 -287t167.5 -92q82 0 153.5 46t126.5 140v553q-94 63 -200 64q-150 0 -232 -111.5t-82 -312.5z" />
<glyph unicode="b" horiz-adv-x="1208" d="M51 1479q59 53 135 88t136 35q29 0 47 -18.5t18 -47.5v-1384q49 -35 99.5 -50.5t115.5 -15.5q137 0 217 113.5t80 308.5q0 123 -36 219t-99.5 149.5t-147.5 53.5q-55 0 -89.5 -13.5t-41.5 -13.5q-12 0 -21 14.5t-9 30.5q0 25 18 37q94 59 207 59q127 0 226.5 -63 t154.5 -176t55 -256q0 -164 -69.5 -296t-190.5 -207t-272 -75q-119 0 -221.5 35t-161.5 94v1280q0 25 -9.5 35t-31.5 10h-90z" />
<glyph unicode="c" horiz-adv-x="1042" d="M92 506q0 162 61.5 283.5t173 188t261.5 66.5q158 0 259 -76.5t101 -197.5q0 -88 -56 -144.5t-144 -56.5q-39 0 -39 23q0 6 14 28.5t24.5 55.5t10.5 84q0 82 -52.5 130t-140.5 48q-117 0 -188.5 -114.5t-71.5 -301.5q0 -190 85 -301.5t231 -111.5q147 0 270 102q6 6 18 6 q16 0 34 -18.5t18 -38.5q0 -12 -7 -19q-72 -82 -167 -126t-201 -44q-141 0 -254 69t-176.5 190.5t-63.5 275.5z" />
<glyph unicode="d" horiz-adv-x="1236" d="M92 469q0 176 64.5 306t184.5 199.5t282 69.5q106 0 194 -26v362q0 25 -9 35t-32 10h-90l-18 54q59 53 136 88t134 35q29 0 47.5 -18.5t18.5 -47.5v-1356q0 -63 61 -63q51 0 102 37l39 -54q-53 -59 -114.5 -94t-112.5 -35q-84 0 -121 51.5t-37 165.5q-84 -119 -172 -168 t-190 -49q-98 0 -182 56.5t-134.5 169t-50.5 272.5zM307 508q0 -195 66.5 -287t167.5 -92q82 0 153.5 46t126.5 140v553q-94 63 -200 64q-150 0 -232 -111.5t-82 -312.5z" />
<glyph unicode="e" horiz-adv-x="1083" d="M92 496q0 164 65.5 287.5t185.5 192t280 68.5q113 0 191.5 -41.5t117.5 -110.5t39 -149q0 -86 -46 -165.5t-134.5 -130t-210.5 -50.5q-66 0 -146 24.5t-80 72.5q0 16 9.5 30.5t21.5 15.5q6 0 41 -14t90 -14q123 0 191.5 69.5t68.5 163.5q0 80 -51 138.5t-143 58.5 q-131 0 -205 -115.5t-74 -330.5q0 -182 78 -286t225 -104q180 0 299 117q8 8 19 8q16 0 34.5 -19t18.5 -40q0 -10 -8 -18q-76 -88 -180.5 -135.5t-225.5 -47.5q-141 0 -247.5 65.5t-165 184.5t-58.5 275z" />
<glyph unicode="f" horiz-adv-x="684" d="M-215 -279q0 78 57.5 131.5t143.5 53.5q39 0 39 -23q0 -6 -16.5 -27.5t-29 -49t-12.5 -70.5q0 -63 32 -99t81 -36q61 0 102 54t41 161v1073h-180q0 55 8 71.5t41 24.5l131 33q0 272 96.5 428t284.5 156q133 0 219 -63.5t86 -164.5q0 -88 -56 -144t-144 -56q-39 0 -39 22 q0 6 14 28.5t24.5 55.5t10.5 84q0 66 -37 105.5t-100 39.5q-90 0 -132 -89t-42 -246v-156h286q0 -43 -12 -78t-35 -51h-239v-916q0 -213 -93.5 -336.5t-275.5 -123.5q-111 0 -182.5 56t-71.5 152z" />
<glyph unicode="g" horiz-adv-x="1232" d="M123 469q0 176 64.5 306t184.5 199.5t281 69.5q80 0 226 -26q123 -20 184 -25l22 -26l-24 -37q-14 -20 -20.5 -38t-6.5 -42v-895q0 -252 -121.5 -388t-332.5 -136q-113 0 -193 42t-119 108.5t-39 142.5q0 102 70 174.5t190 72.5q20 0 29.5 -7t9.5 -15t-28.5 -39t-50 -74 t-21.5 -108q0 -82 48 -136.5t130 -54.5q127 0 186.5 104.5t59.5 280.5v326q-84 -119 -172 -168t-191 -49q-98 0 -182 50t-134 148.5t-50 239.5zM338 508q0 -164 66.5 -242t166.5 -78q82 0 154 46.5t127 140.5v493q-94 63 -201 64q-150 0 -231.5 -111.5t-81.5 -312.5z" />
<glyph unicode="h" horiz-adv-x="1308" d="M72 1479q59 53 136 88t134 35q29 0 47.5 -18.5t18.5 -47.5v-797q53 133 159.5 219t223.5 86q150 0 212 -88t62 -284v-496q0 -70 61 -70q51 0 103 44l39 -54q-53 -59 -114.5 -94t-115.5 -35q-84 0 -120.5 51.5t-36.5 165.5v488q0 109 -40 161t-136 52q-88 0 -155 -70 t-104.5 -196.5t-37.5 -290.5q0 -96 14 -153.5t51 -111.5l25 -32l-25 -31h-358l-23 63l43 11q51 12 68.5 44t17.5 109v1153q0 25 -9 35t-32 10h-90z" />
<glyph unicode="i" horiz-adv-x="638" d="M72 922q59 53 135 87.5t135 34.5q29 0 47.5 -18t18.5 -47l-2 -799q0 -69 61 -69q51 0 102 43l39 -54q-53 -59 -114.5 -94t-114.5 -35q-84 0 -121 51.5t-37 165.5v635q0 25 -9 35t-32 10h-90zM188 1348q0 38 44 86.5t81 48.5q39 0 84 -47t45 -88q0 -39 -45 -86.5 t-84 -47.5q-35 0 -80 47.5t-45 86.5z" />
<glyph unicode="j" horiz-adv-x="595" d="M-227 -360q0 78 57 131t143 53q39 0 39 -23q0 -6 -16 -27.5t-28.5 -49t-12.5 -70.5q0 -63 31.5 -99t81.5 -36q61 0 102 54t41 161v1089q0 25 -9 35t-32 10h-90l-19 54q59 53 136 87.5t135 34.5q29 0 47 -18t18 -47v-1088q0 -213 -93 -336.5t-277 -123.5q-111 0 -182.5 56 t-71.5 153zM178 1348q0 38 44 86.5t81 48.5q39 0 84 -47t45 -88q0 -39 -45 -86.5t-84 -47.5q-35 0 -80 47.5t-45 86.5z" />
<glyph unicode="k" horiz-adv-x="1196" d="M72 1479q59 53 136 88t134 35q29 0 47.5 -18.5t18.5 -47.5v-797q51 135 154.5 220t215.5 85q135 0 209 -77.5t74 -190.5q0 -72 -36 -140.5t-104.5 -116.5t-162.5 -58l160 -303q16 -33 36.5 -45.5t49.5 -12.5q27 0 55 14.5t53 39.5l43 -54q-94 -129 -219 -129 q-61 0 -103 24.5t-72 67.5t-73 125l-151 289l-19 6q-39 10 -39 43q0 16 7.5 27.5t23.5 11.5q6 0 41 -9t90 -9q76 0 129 30.5t80 80t27 100.5q0 61 -36 103t-102 42q-100 0 -176 -71.5t-115.5 -202.5t-39.5 -301q0 -98 14 -156.5t51 -108.5l25 -32l-25 -31h-358l-23 63l43 11 q51 12 68.5 44t17.5 109v1153q0 25 -9 35t-32 10h-90z" />
<glyph unicode="l" horiz-adv-x="618" d="M51 1479q59 53 135 88t136 35q29 0 47 -18.5t18 -47.5l-2 -1356q0 -69 61 -69q51 0 103 43l39 -54q-53 -59 -114.5 -94t-115.5 -35q-84 0 -120.5 51.5t-36.5 165.5v1192q0 25 -9.5 35t-31.5 10h-90z" />
<glyph unicode="m" horiz-adv-x="1927" d="M82 901q59 53 136 88t134 35q29 0 47.5 -18.5t18.5 -47.5v-219q53 135 155.5 220t214.5 85q125 0 188.5 -73.5t74.5 -231.5q53 135 155.5 220t214.5 85q137 0 199.5 -88t62.5 -280v-496q0 -69 60 -69h2q47 0 102 43l39 -54q-53 -59 -114.5 -94t-114.5 -35 q-84 0 -121 51.5t-37 165.5v488q0 209 -151 209q-86 0 -152 -66.5t-104.5 -187.5t-40.5 -279v-24q0 -106 17 -169t73 -128l-25 -31h-250v676q0 209 -151 209q-88 0 -154.5 -70t-104.5 -196.5t-38 -290.5q0 -97 14 -154t51 -111l25 -32l-25 -31h-358l-23 63l43 11 q51 12 68.5 44t17.5 109v576q0 25 -9 35t-32 10h-90z" />
<glyph unicode="n" horiz-adv-x="1318" d="M82 901q59 53 136 88t134 35q29 0 47.5 -18.5t18.5 -47.5v-219q53 133 159.5 219t223.5 86q143 0 208.5 -88t65.5 -280v-496q0 -69 60 -69h2q47 0 102 43l39 -54q-53 -59 -114.5 -94t-114.5 -35q-84 0 -121 51.5t-37 165.5v488q0 209 -176 209q-88 0 -154.5 -70 t-104.5 -196.5t-38 -290.5q0 -97 14 -154t51 -111l25 -32l-25 -31h-358l-23 63l43 11q51 12 68.5 44t17.5 109v576q0 25 -9 35t-32 10h-90z" />
<glyph unicode="o" horiz-adv-x="1183" d="M92 508q0 164 60.5 284.5t174 186t265.5 65.5t264.5 -65.5t174 -186t61.5 -284.5q0 -162 -61.5 -284t-174.5 -187.5t-264 -65.5q-152 0 -265.5 65.5t-174 187.5t-60.5 284zM305 506q0 -195 76 -309.5t205 -114.5q84 0 150.5 52t103.5 147.5t37 220.5q0 96 -27 196.5 t-89.5 170t-162.5 69.5q-86 0 -152.5 -54.5t-103.5 -152.5t-37 -225z" />
<glyph unicode="p" horiz-adv-x="1218" d="M61 870v68q33 29 125.5 55.5t159.5 26.5q49 0 49 -94v-11q133 129 295 129q127 0 226.5 -63t154.5 -176t55 -256q0 -164 -58 -296t-160.5 -207t-231.5 -75q-121 0 -205 56q-18 12 -18 36q0 20 7 36t23 16q8 0 46 -16.5t100 -16.5q80 0 144.5 55.5t100 152.5t35.5 218 q0 117 -35.5 208t-100 142t-148.5 51q-125 0 -230 -80v-1146q0 -78 17.5 -110t68.5 -44l43 -10l-22 -64h-357l-24 31l24 33q37 53 51.5 110.5t14.5 153.5v997q0 33 -9 47.5t-34 20.5z" />
<glyph unicode="q" horiz-adv-x="1206" d="M92 469q0 176 64.5 306t184.5 199.5t282 69.5q82 0 227 -26q129 -20 186 -25l23 -26l-25 -37q-14 -25 -20 -41.5t-6 -38.5v-1092q0 -98 10 -148t39 -91l20 -33l-24 -31h-381v68l63 28q49 23 67.5 53.5t18.5 96.5v487q-84 -119 -172 -168t-190 -49q-98 0 -182 56.5 t-134.5 169t-50.5 272.5zM307 508q0 -195 66.5 -287t167.5 -92q82 0 153.5 46t126.5 140v553q-94 63 -200 64q-150 0 -232 -111.5t-82 -312.5z" />
<glyph unicode="r" horiz-adv-x="894" d="M82 901q59 53 136 88t134 35q29 0 47.5 -18.5t18.5 -47.5v-219h12q35 137 107.5 221t158.5 84t142.5 -56t56.5 -152q0 -78 -57.5 -131.5t-143.5 -53.5q-39 0 -39 23q0 6 17.5 30.5t29 51t11.5 59.5q0 37 -19.5 58.5t-48.5 21.5q-49 0 -101 -58.5t-89 -188.5t-37 -329 q0 -92 14 -148t51 -108l25 -32l-25 -31h-358l-23 63l43 11q51 12 68.5 44t17.5 109v576q0 25 -9 35t-32 10h-90z" />
<glyph unicode="s" horiz-adv-x="985" d="M111 227q0 70 47 115t123 45q43 0 43 -25q0 -6 -12.5 -37.5t-12.5 -76.5q0 -86 60.5 -131t134.5 -45q84 0 138 46t54 120q0 66 -56.5 106.5t-166.5 87.5q-100 41 -167 80t-114 101.5t-47 154.5q0 123 105.5 199.5t267.5 76.5q145 0 241.5 -57t96.5 -153q0 -78 -48 -128.5 t-124 -50.5q-43 0 -43 27q0 8 15.5 42t15.5 73q0 76 -51.5 112.5t-116.5 36.5q-84 0 -132.5 -42t-48.5 -107q0 -76 60.5 -122t179.5 -95q98 -41 163.5 -77t110.5 -91.5t45 -132.5q0 -139 -110.5 -223.5t-294.5 -84.5q-156 0 -256 70t-100 186z" />
<glyph unicode="t" horiz-adv-x="698" d="M23 889q0 55 8 71.5t41 24.5q109 29 154.5 93.5t66.5 166.5q6 33 21.5 41t74.5 8v-276h266q0 -43 -12 -78t-35 -51h-219v-660q0 -63 18.5 -89.5t59.5 -26.5q61 0 139 65l39 -53q-53 -70 -127 -112t-139 -42q-84 0 -130 52.5t-46 144.5v721h-180z" />
<glyph unicode="u" horiz-adv-x="1294" d="M61 922q53 53 130 87.5t141 34.5q29 0 47 -18t18 -47v-621q0 -123 50.5 -186t146.5 -63q137 0 214 118.5t77 327.5q0 152 -17.5 237t-62.5 162l-25 33l25 31l250 26v-864q0 -63 59 -63q47 0 100 37l39 -54q-47 -57 -109.5 -93t-115.5 -36q-82 0 -120 47.5t-38 149.5 q-47 -90 -140 -143.5t-206 -53.5q-147 0 -230 89.5t-83 250.5v512q0 45 -41 45h-90z" />
<glyph unicode="v" horiz-adv-x="1132" d="M0 922q53 53 127 87.5t131 34.5q55 0 66 -65l92 -639q18 -127 53 -181.5t102 -54.5q127 0 193.5 145.5t66.5 352.5q0 98 -22.5 190.5t-67.5 163.5l-20 33l24 27l244 28q10 -127 10 -217q0 -272 -61 -465.5t-164.5 -292t-224.5 -98.5q-106 0 -171 40t-103.5 129t-61.5 249 l-63 434q-4 27 -12.5 36t-28.5 9h-91z" />
<glyph unicode="w" horiz-adv-x="1665" d="M0 922q53 53 127 87.5t131 34.5q55 0 66 -65l92 -639q18 -127 53 -181.5t102 -54.5q66 0 117 71t79 186.5t28 242.5q0 98 -22.5 190.5t-67.5 163.5l-21 33l25 27l239 26q10 -127 10 -217q0 -94 -10 -200l43 -287q18 -127 55 -181.5t109 -54.5q66 0 117 71t78.5 186.5 t27.5 242.5q0 98 -22.5 190.5t-67.5 163.5l-20 33l24 27l240 26q10 -127 10 -217q0 -272 -55 -465.5t-147.5 -292t-198.5 -98.5q-119 0 -185.5 58.5t-103.5 199.5q-55 -127 -134 -192.5t-169 -65.5q-106 0 -171 40t-103.5 129t-61.5 249l-63 434q-4 27 -12.5 36t-28.5 9h-91 z" />
<glyph unicode="x" horiz-adv-x="1132" d="M41 950q88 94 190 94q137 0 220 -143l159 -278q180 205 181 266q0 33 -39 65l-39 33l24 31h318l22 -43l-108 -109q-233 -233 -314 -319l228 -389q18 -33 38.5 -45.5t47.5 -12.5q37 0 78 27l45 -61q-88 -94 -191 -95q-137 0 -219 144l-166 282q-180 -209 -180 -268 q0 -33 39 -66l39 -32l-25 -31h-317l-23 43l45 45q279 279 379 385l-223 385q-18 33 -39 45t-47 12q-37 0 -78 -26z" />
<glyph unicode="y" horiz-adv-x="1249" d="M61 924q53 53 130 88t141 35q29 0 47 -18.5t18 -47.5v-563q0 -123 49.5 -186.5t143.5 -63.5q137 0 214 103.5t77 285.5q0 168 -14.5 250t-65.5 149l-25 33l25 31l250 27v-1092q0 -252 -122 -388t-333 -136q-113 0 -192.5 42t-118.5 108.5t-39 142.5q0 102 69.5 174.5 t190.5 72.5q20 0 29.5 -7t9.5 -15t-29 -39t-50.5 -74t-21.5 -108q0 -82 48.5 -136.5t130.5 -54.5q127 0 186 104.5t59 280.5v303q-47 -90 -141 -142t-207 -52q-145 0 -227 89t-82 251v454q0 25 -9 35t-32 10h-90z" />
<glyph unicode="z" horiz-adv-x="980" d="M68 63l575 836h-307q-78 0 -109.5 -17.5t-44.5 -68.5l-24 -108l-64 22v315l25 25q43 -29 95 -39t148 -10h510q41 -35 41 -88l-55 -33l-539 -778h322q78 0 109.5 17.5t44.5 68.5l24 108l64 -22v-316l-25 -24q-43 29 -95 39t-149 10h-524z" />
<glyph unicode="{" horiz-adv-x="647" d="M0 639v78q88 16 122 83.5t34 227.5q0 229 102 380t320 177l14 -92q-104 -25 -156.5 -152t-52.5 -313q0 -164 -58.5 -246t-166.5 -104q106 -20 165.5 -103t59.5 -247q0 -187 52 -314t157 -151l-14 -92q-217 27 -319.5 177t-102.5 380q0 160 -34 227.5t-122 83.5z" />
<glyph unicode="|" horiz-adv-x="718" d="M258 -168v1692h203v-1692h-203z" />
<glyph unicode="}" horiz-adv-x="647" d="M55 -137q104 25 156.5 151.5t52.5 313.5q0 164 59.5 246.5t165.5 103.5q-109 23 -167 104.5t-58 245.5q0 186 -52 313t-157 152l15 92q217 -27 319.5 -177.5t102.5 -379.5q0 -160 33.5 -227.5t121.5 -83.5v-78q-88 -16 -121.5 -84t-33.5 -227q0 -229 -102.5 -380 t-319.5 -177z" />
<glyph unicode="~" horiz-adv-x="1271" d="M203 659v156q94 -66 207 -65q55 0 105 16t122 49q76 33 125 49.5t108 16.5q121 0 199 -66v-156q-96 68 -207 68q-55 0 -105 -16.5t-122 -48.5q-72 -33 -123 -50.5t-111 -17.5q-119 0 -198 65z" />
<glyph unicode="&#xa1;" horiz-adv-x="503" d="M123 -502q0 117 22.5 406t55.5 616q10 92 51 92t51 -92q33 -328 55.5 -616.5t22.5 -405.5q-45 -51 -129 -51q-80 0 -129 51zM123 913q0 39 45 86.5t84 47.5q35 0 80 -47.5t45 -86.5t-44 -87t-81 -48q-39 0 -84 47t-45 88z" />
<glyph unicode="&#xa2;" horiz-adv-x="995" d="M88 733q0 215 107.5 357.5t291.5 175.5v327q20 25 56.5 37t72.5 12v-370q145 -8 236.5 -83t91.5 -190q0 -88 -56.5 -144t-144.5 -56q-39 0 -38 22q0 6 14 28.5t24.5 55.5t10.5 84q0 82 -52.5 130t-140.5 48q-117 0 -188.5 -118.5t-71.5 -311.5q0 -182 80 -290.5 t213 -108.5q145 0 268 102q6 6 19 6q16 0 33.5 -18t17.5 -39q0 -12 -6 -18q-125 -143 -310 -166v-326q-18 -25 -54 -37t-75 -12v375q-119 16 -209 88t-140 185.5t-50 254.5z" />
<glyph unicode="&#xa3;" horiz-adv-x="1220" d="M61 618q0 94 48 130h151l-12 45q-23 90 -34 145t-11 109q0 205 121.5 328.5t371.5 123.5q170 0 292 -73.5t122 -206.5q0 -94 -63.5 -156t-155.5 -62q-25 0 -34 4.5t-9 20.5q0 6 17.5 32.5t30.5 61.5t13 82q0 86 -63.5 134t-147.5 48q-123 0 -200.5 -76.5t-77.5 -291.5 q0 -61 12 -129t14 -80l13 -59h444q0 -92 -47 -130h-385q0 -113 -36 -224t-109 -208h813q0 -55 -16.5 -106t-53.5 -80h-954l-52 88q111 76 174.5 190.5t63.5 227.5q0 47 -10 112h-230z" />
<glyph unicode="&#xa4;" horiz-adv-x="1280" d="M51 1214q23 25 55.5 40.5t65.5 15.5l201 -203q106 82 262 82q158 0 268 -84l236 235q25 -23 41 -55.5t16 -64.5l-209 -211q70 -119 70 -258q0 -135 -70 -254l242 -244q-66 -57 -125 -57l-201 206q-100 -86 -268 -86q-156 0 -258 80l-236 -233q-24 24 -40.5 57t-16.5 64 l203 205q-72 117 -72 262t72 262zM418 707q0 -154 54 -237t149 -83q104 0 168.5 88t64.5 242t-55.5 238.5t-151.5 84.5q-102 0 -165.5 -90t-63.5 -243z" />
<glyph unicode="&#xa5;" horiz-adv-x="1282" d="M29 1438l26 32h461l25 -69l-47 -12q-49 -12 -71 -33t-22 -58q0 -23 29 -70.5t35 -58.5l221 -387l232 414q25 47 24 84q0 41 -25.5 69.5t-60.5 39.5l-47 12l25 69h389l26 -32l-30 -37q-72 -86 -146 -217l-139 -246h252q0 -39 -12.5 -74t-36.5 -55h-275l-106 -188v-15h430 q0 -39 -12.5 -73.5t-36.5 -55.5h-381v-205q0 -92 28.5 -131t106.5 -59l47 -12l-25 -70h-448l-27 33l27 37q51 72 73.5 146.5t22.5 195.5v65h-426q0 94 47 129h377l-115 203h-309q0 94 47 129h189l-138 242q-55 98 -98 153.5t-106 104.5z" />
<glyph unicode="&#xa6;" horiz-adv-x="718" d="M258 -168v598h203v-598h-203zM258 928v596h203v-596h-203z" />
<glyph unicode="&#xa7;" horiz-adv-x="899" d="M70 -297q0 88 57 144.5t143 56.5q39 0 39 -23q0 -6 -14 -28.5t-24.5 -55.5t-10.5 -84q0 -66 44 -105.5t112 -39.5q86 0 143 53t57 148q0 74 -42 155.5t-148 208.5q-180 213 -180 385q0 55 14 105l315 -379q86 -102 131.5 -204.5t45.5 -191.5q0 -152 -91.5 -262 t-285.5 -110q-133 0 -219 63.5t-86 163.5zM147 1124q0 152 91.5 262.5t285.5 110.5q133 0 219 -63.5t86 -163.5q0 -88 -57 -144.5t-143 -56.5q-39 0 -39 23q0 6 14 28.5t24.5 55t10.5 84.5q0 66 -44 105.5t-112 39.5q-86 0 -143 -53.5t-57 -147.5q0 -74 42 -155.5 t148 -208.5q180 -213 180 -385q0 -55 -14 -105l-315 379q-86 102 -131.5 204.5t-45.5 190.5z" />
<glyph unicode="&#xa8;" horiz-adv-x="862" d="M111 1348q0 38 44 86.5t81 48.5q39 0 84 -47t45 -88q0 -39 -45.5 -86.5t-83.5 -47.5q-35 0 -80 47.5t-45 86.5zM498 1348q0 38 44 86.5t81 48.5q39 0 84 -47t45 -88q0 -39 -45 -86.5t-84 -47.5q-35 0 -80 47.5t-45 86.5z" />
<glyph unicode="&#xa9;" horiz-adv-x="1593" d="M205 1020q0 160 80 296t216 216t296 80t296 -80t216 -216t80 -296t-80 -296t-216.5 -216t-295.5 -80q-160 0 -296 80t-216 216t-80 296zM258 1020q0 -146 72.5 -269.5t196.5 -196.5t270 -73q145 0 269 73t196.5 196.5t72.5 269.5q0 145 -72.5 269t-196.5 197t-269 73 t-269.5 -73t-197 -197t-72.5 -269zM442 1026q0 180 93.5 297t271.5 117q100 0 180 -49l19 36h51v-223q-8 -14 -28.5 -21t-41.5 -7l-26 106q-60 82 -154 82q-117 0 -170 -99.5t-53 -238.5t62.5 -232.5t166.5 -93.5q135 0 209 111l53 -47q-100 -154 -270 -154 q-176 0 -269.5 117t-93.5 299z" />
<glyph unicode="&#xaa;" horiz-adv-x="815" d="M92 926q0 104 80 164.5t217 60.5q68 0 111 -8v117q-1 151 -99 151q-111 0 -110 -156q-37 -31 -82 -30q-35 0 -57.5 21.5t-22.5 56.5q0 53 37 97t100.5 70.5t134.5 26.5q131 0 191.5 -63.5t60.5 -200.5v-338q0 -35 29 -35t74 31l39 -53q-43 -45 -89.5 -72t-84.5 -27 q-53 0 -82 26t-37 83q-35 -51 -89.5 -80t-121.5 -29q-86 0 -142.5 52.5t-56.5 134.5zM258 946q0 -45 23.5 -69.5t68.5 -24.5q66 0 107 58.5t43 150.5q-23 8 -80 8q-78 0 -120 -31.5t-42 -91.5z" />
<glyph unicode="&#xab;" horiz-adv-x="1036" d="M102 571q0 35 46.5 120t181.5 304q51 -4 93 -22.5t83 -71.5q-29 -51 -99.5 -132t-181.5 -198q233 -246 281 -329q-41 -54 -83 -72t-93 -23q-137 223 -182.5 305.5t-45.5 118.5zM530 571q0 35 46.5 120t181.5 304q51 -4 93 -22.5t83 -71.5q-29 -51 -99.5 -132t-181.5 -198 q233 -246 281 -329q-41 -54 -83 -72t-93 -23q-137 223 -182.5 305.5t-45.5 118.5z" />
<glyph unicode="&#xac;" horiz-adv-x="1271" d="M203 653v156h866v-465h-139v309h-727z" />
<glyph unicode="&#xad;" horiz-adv-x="1228" d="M68 516q0 41 13 82t40 61l538 21q0 -43 -12 -83t-41 -60z" />
<glyph unicode="&#xae;" horiz-adv-x="1593" d="M205 1020q0 160 80 296t216 216t296 80t296 -80t216 -216t80 -296t-80 -296t-216.5 -216t-295.5 -80q-160 0 -296 80t-216 216t-80 296zM258 1020q0 -146 72.5 -269.5t196.5 -196.5t270 -73q145 0 269 73t196.5 196.5t72.5 269.5q0 145 -72.5 269t-196.5 197t-269 73 t-269.5 -73t-197 -197t-72.5 -269zM498 625v49l49 26q18 10 18 33v602l-67 25q0 18 8 36.5t22 28.5h226q162 0 235.5 -59t73.5 -158q0 -70 -37 -129t-111 -90q35 -35 41 -49l125 -231l64 -23q0 -41 -27 -61h-178l-18 20l8 14q10 25 10 37q0 8 -14 37l-97 185 q-10 22 -25.5 31t-45.5 9h-60v-243l68 -23q0 -43 -31 -67h-237zM698 1034h62q84 0 124 46t40 120q0 66 -41 104.5t-129 38.5q-55 0 -56 -32v-277z" />
<glyph unicode="&#xaf;" horiz-adv-x="835" d="M115 1264q0 47 13 93t40 70h551q0 -49 -12.5 -94t-40.5 -69h-551z" />
<glyph unicode="&#xb0;" horiz-adv-x="890" d="M82 1118q0 174 97 276.5t265 102.5t266.5 -102.5t98.5 -276.5q0 -172 -98.5 -275.5t-266.5 -103.5q-166 0 -264 103.5t-98 275.5zM256 1112q0 -131 48 -203.5t130 -72.5q88 0 143.5 77.5t55.5 210.5q0 131 -48 204t-130 73q-88 0 -143.5 -78t-55.5 -211z" />
<glyph unicode="&#xb1;" horiz-adv-x="1271" d="M203 -2v156h866v-156h-866zM203 653v156h356v356h154v-356h356v-156h-356v-354h-154v354h-356z" />
<glyph unicode="&#xb2;" horiz-adv-x="794" d="M55 668q193 158 293.5 262t136 179t35.5 153q0 68 -40 104.5t-95 36.5t-96 -37t-41 -100q0 -23 9 -45.5t11 -26.5q14 -25 15 -39q0 -23 -45 -22q-66 0 -109 40t-43 101q0 109 88 167t213 58q147 0 231 -62.5t84 -176.5q0 -115 -109.5 -245t-301.5 -286h436 q0 -94 -53 -139h-580z" />
<glyph unicode="&#xb3;" horiz-adv-x="794" d="M80 784q0 61 44 101.5t107 40.5q29 0 38.5 -4t9.5 -25q-2 -2 -6.5 -9t-6.5 -14q-2 -4 -12 -25.5t-10 -53.5q0 -53 40 -85t95 -32q63 0 108 41t45 117q0 63 -38.5 115.5t-143.5 52.5q-39 0 -80 -11q-4 -2 -18 -2q-39 0 -39 35q0 25 13.5 34t70.5 19q125 25 168 77t43 116 q0 63 -39 98t-92 35q-45 0 -78 -28.5t-33 -82.5q0 -43 23 -82l12 -22q0 -27 -45 -27q-66 0 -109 39t-43 101q0 94 80 145t195 51q123 0 214 -58.5t91 -164.5q0 -139 -156 -213q88 -31 134.5 -93.5t46.5 -142.5q0 -121 -87 -186.5t-241 -65.5q-123 0 -212 55.5t-89 153.5z " />
<glyph unicode="&#xb4;" horiz-adv-x="589" d="M129 1237l320 319q38 -18 62 -52t24 -77q0 -45 -27 -80.5t-88 -66.5l-232 -115z" />
<glyph unicode="&#xb5;" horiz-adv-x="1257" d="M45 870v68q37 29 130 55.5t157 26.5q25 0 36 -22.5t11 -71.5v-568q0 -123 52 -186t155 -63q121 0 198.5 96t77.5 246v387q-2 27 -7 46t-21 46l-25 37l25 26l213 27v-1020l-25 -29q-82 0 -121 48.5t-39 148.5q-41 -86 -127 -141.5t-178 -55.5q-106 0 -178 70v-469l-211 27 l-25 26l25 37q16 25 22.5 47.5t6.5 57.5v1013q0 31 -9.5 46.5t-35.5 21.5z" />
<glyph unicode="&#xb6;" horiz-adv-x="1261" d="M137 1108q0 -111 52.5 -234.5t160.5 -250.5l328 -379q106 -123 148 -206t42 -159q0 -94 -57 -147.5t-143 -53.5q-68 0 -112 40t-44 106q0 53 11.5 86t24.5 54.5t13 27.5q0 23 -39 22q-86 0 -143 -56t-57 -144q0 -100 86 -164t219 -64q194 0 285.5 110.5t91.5 262.5v1344 q0 23 6 39t20 40l25 37l-23 27q-72 6 -172 22q-94 16 -157.5 23.5t-133.5 7.5q-125 0 -223 -49t-153.5 -137t-55.5 -205zM295 1161q0 104 64.5 163.5t150.5 59.5q152 0 228.5 -98t76.5 -268v-649l-315 364q-106 125 -155.5 233.5t-49.5 194.5z" />
<glyph unicode="&#xb7;" horiz-adv-x="391" d="M68 657q0 39 44 87.5t81 48.5q39 0 84 -47.5t45 -88.5q0 -39 -45.5 -86t-83.5 -47q-35 0 -80 47.5t-45 85.5z" />
<glyph unicode="&#xb8;" horiz-adv-x="716" d="M113 -446q0 53 37.5 85.5t93.5 32.5q16 0 25.5 -6t9.5 -14q0 -6 -14.5 -28.5t-14.5 -61.5q0 -35 24.5 -57.5t59.5 -22.5q59 0 94 46t35 110q0 61 -36 106t-101 45q-55 0 -113 -35l-41 37l242 313l49 -45l-158 -202q35 8 78 8q98 0 164.5 -59.5t66.5 -172.5 q0 -63 -36.5 -118.5t-100 -87t-141.5 -31.5q-90 0 -156.5 42t-66.5 116z" />
<glyph unicode="&#xb9;" horiz-adv-x="653" d="M29 1341l358 164q45 -10 76 -63l-37 -23v-557q0 -74 10 -118t41 -78l23 -27l-27 -35h-317l-23 64l70 18q37 10 49 26.5t12 65.5v537l-121 -78q-37 8 -67.5 38t-46.5 66z" />
<glyph unicode="&#xba;" horiz-adv-x="890" d="M82 1118q0 174 97 276.5t265 102.5t266.5 -102.5t98.5 -276.5q0 -172 -98.5 -275.5t-266.5 -103.5q-166 0 -264 103.5t-98 275.5zM256 1118q0 -127 56.5 -204.5t142.5 -77.5q82 0 130 72.5t48 197.5q0 133 -56.5 216t-144.5 83q-82 0 -129 -77t-47 -210z" />
<glyph unicode="&#xbb;" horiz-adv-x="1036" d="M102 242q48 83 281 329q-111 117 -181.5 198t-99.5 132q41 53 83 71.5t94 22.5q135 -219 181 -304t46 -120q0 -37 -45 -118.5t-182 -305.5q-51 4 -93.5 22.5t-83.5 72.5zM530 242q48 83 281 329q-111 117 -181.5 198t-99.5 132q41 53 83 71.5t94 22.5q135 -219 181 -304 t46 -120q0 -37 -45 -118.5t-182 -305.5q-51 4 -93.5 22.5t-83.5 72.5z" />
<glyph unicode="&#xbc;" horiz-adv-x="1726" d="M29 1341l358 164q45 -10 76 -63l-37 -23v-557q0 -74 10 -118t41 -78l23 -27l-27 -35h-317l-23 64l70 18q37 10 49 26.5t12 65.5v537l-121 -78q-37 8 -67.5 38t-46.5 66zM449 0l612 1470h148l-615 -1470h-145zM965 195l291 698h104l35 -31l-254 -563h258v152q0 37 -5 58 t-23 50l24 29l168 18v-307h113q0 -72 -41 -104h-70q4 -48 14.5 -78.5t32.5 -55.5l23 -26l-25 -35h-317l-25 63l70 19q37 10 49 26.5t12 65.5v21h-434z" />
<glyph unicode="&#xbd;" horiz-adv-x="1761" d="M29 1341l358 164q45 -10 76 -63l-37 -23v-557q0 -74 10 -118t41 -78l23 -27l-27 -35h-317l-23 64l70 18q37 10 49 26.5t12 65.5v537l-121 -78q-37 8 -67.5 38t-46.5 66zM449 0l612 1470h148l-615 -1470h-145zM1038 78q193 158 293.5 262t136 179t35.5 153q0 68 -40 104.5 t-95 36.5t-96 -37t-41 -100q0 -23 9 -45.5t11 -26.5q14 -25 15 -39q0 -23 -45 -22q-66 0 -109 40t-43 101q0 109 88 167t213 58q147 0 231 -62.5t84 -176.5q0 -115 -109.5 -245t-301.5 -286h436q0 -94 -53 -139h-580z" />
<glyph unicode="&#xbe;" horiz-adv-x="1779" d="M31 784q0 61 44 101.5t107 40.5q29 0 38.5 -4t9.5 -25q-2 -2 -6.5 -9t-6.5 -14q-2 -4 -12 -25.5t-10 -53.5q0 -53 40 -85t95 -32q63 0 108 41t45 117q0 63 -38.5 115.5t-143.5 52.5q-39 0 -80 -11q-4 -2 -18 -2q-39 0 -39 35q0 25 13.5 34t70.5 19q125 25 168 77t43 116 q0 63 -39 98t-92 35q-45 0 -78 -28.5t-33 -82.5q0 -43 23 -82l12 -22q0 -27 -45 -27q-66 0 -109 39t-43 101q0 94 80 145t195 51q123 0 214 -58.5t91 -164.5q0 -139 -156 -213q88 -31 134.5 -93.5t46.5 -142.5q0 -121 -87 -186.5t-241 -65.5q-123 0 -212 55.5t-89 153.5z M502 0l612 1470h148l-615 -1470h-145zM1018 195l291 698h104l35 -31l-254 -563h258v152q0 37 -5 58t-23 50l24 29l168 18v-307h113q0 -72 -41 -104h-70q4 -48 14.5 -78.5t32.5 -55.5l23 -26l-25 -35h-317l-25 63l70 19q37 10 49 26.5t12 65.5v21h-434z" />
<glyph unicode="&#xbf;" horiz-adv-x="1101" d="M131 -178q0 217 289 493q80 76 116.5 120t53.5 102l10 38h39l125 -126q-168 -147 -256 -259t-115.5 -193t-27.5 -163q0 -125 67.5 -189.5t181.5 -64.5q88 0 140.5 48t52.5 130q0 53 -11.5 86t-24.5 54.5t-13 27.5q0 23 39 23q88 0 144 -56.5t56 -144.5q0 -82 -55 -147.5 t-153.5 -101.5t-223.5 -36q-119 0 -218 42t-157.5 123t-58.5 194zM496 913q0 39 45 86.5t84 47.5q35 0 80 -47.5t45 -86.5t-44 -87t-81 -48q-39 0 -84 47t-45 88z" />
<glyph unicode="&#xc0;" horiz-adv-x="1445" d="M-33 70l47 12q82 23 119 59.5t70 130.5l321 926q23 68 23 100q0 37 -21.5 57.5t-70.5 33.5l-47 12l24 69h395l412 -1187q33 -94 72 -143.5t112 -106.5l-26 -33h-461l-25 70l47 12q49 12 71 32.5t22 57.5q0 33 -23 100l-98 287h-473l-49 -149q-47 -141 -48 -215 q0 -70 29 -125l19 -37l-39 -33h-377zM500 686h387l-197 574zM521 1880q0 43 23.5 77t62.5 52l319 -319l-59 -72l-232 115q-61 31 -87.5 66.5t-26.5 80.5z" />
<glyph unicode="&#xc1;" horiz-adv-x="1445" d="M-33 70l47 12q82 23 119 59.5t70 130.5l321 926q23 68 23 100q0 37 -21.5 57.5t-70.5 33.5l-47 12l24 69h395l412 -1187q33 -94 72 -143.5t112 -106.5l-26 -33h-461l-25 70l47 12q49 12 71 32.5t22 57.5q0 33 -23 100l-98 287h-473l-49 -149q-47 -141 -48 -215 q0 -70 29 -125l19 -37l-39 -33h-377zM500 686h387l-197 574zM520 1690l320 319q38 -18 62 -52t24 -77q0 -45 -27 -80.5t-88 -66.5l-232 -115z" />
<glyph unicode="&#xc2;" horiz-adv-x="1445" d="M-33 70l47 12q82 23 119 59.5t70 130.5l321 926q23 68 23 100q0 37 -21.5 57.5t-70.5 33.5l-47 12l24 69h395l412 -1187q33 -94 72 -143.5t112 -106.5l-26 -33h-461l-25 70l47 12q49 12 71 32.5t22 57.5q0 33 -23 100l-98 287h-473l-49 -149q-47 -141 -48 -215 q0 -70 29 -125l19 -37l-39 -33h-377zM442 1676q66 115 139.5 207t114.5 116h56q37 -22 112.5 -116.5t139.5 -206.5l-66 -58l-215 170l-213 -170zM500 686h387l-197 574z" />
<glyph unicode="&#xc3;" horiz-adv-x="1445" d="M-33 70l47 12q82 23 119 59.5t70 130.5l321 926q23 68 23 100q0 37 -21.5 57.5t-70.5 33.5l-47 12l24 69h395l412 -1187q33 -94 72 -143.5t112 -106.5l-26 -33h-461l-25 70l47 12q49 12 71 32.5t22 57.5q0 33 -23 100l-98 287h-473l-49 -149q-47 -141 -48 -215 q0 -70 29 -125l19 -37l-39 -33h-377zM387 1727q68 92 136.5 145.5t127.5 53.5q31 0 54.5 -10.5t56.5 -28.5q29 -16 45 -24.5t37 -8.5q57 0 139 80l70 -64q-66 -92 -135.5 -145t-127.5 -53q-33 0 -59.5 11t-54.5 30q-27 16 -43.5 23t-36.5 7q-57 0 -137 -80zM500 686h387 l-197 574z" />
<glyph unicode="&#xc4;" horiz-adv-x="1445" d="M-33 70l47 12q82 23 119 59.5t70 130.5l321 926q23 68 23 100q0 37 -21.5 57.5t-70.5 33.5l-47 12l24 69h395l412 -1187q33 -94 72 -143.5t112 -106.5l-26 -33h-461l-25 70l47 12q49 12 71 32.5t22 57.5q0 33 -23 100l-98 287h-473l-49 -149q-47 -141 -48 -215 q0 -70 29 -125l19 -37l-39 -33h-377zM402 1801q0 38 44 86.5t81 48.5q39 0 84 -47t45 -88q0 -39 -45.5 -86.5t-83.5 -47.5q-35 0 -80 47.5t-45 86.5zM500 686h387l-197 574zM789 1801q0 38 44 86.5t81 48.5q39 0 84 -47t45 -88q0 -39 -45 -86.5t-84 -47.5q-35 0 -80 47.5 t-45 86.5z" />
<glyph unicode="&#xc5;" horiz-adv-x="1445" d="M-33 70l47 12q82 23 119 59.5t70 130.5l321 926q23 68 23 100q0 37 -21.5 57.5t-70.5 33.5l-47 12l24 69h395l412 -1187q33 -94 72 -143.5t112 -106.5l-26 -33h-461l-25 70l47 12q49 12 71 32.5t22 57.5q0 33 -23 100l-98 287h-473l-49 -149q-47 -141 -48 -215 q0 -70 29 -125l19 -37l-39 -33h-377zM489 1801q0 96 59.5 157.5t170.5 61.5q115 0 175 -61.5t60 -157.5t-60.5 -157t-174.5 -61q-111 0 -170.5 60.5t-59.5 157.5zM500 686h387l-197 574zM633 1801q0 -52 22.5 -85.5t63.5 -33.5q43 0 66.5 33.5t23.5 85.5q0 51 -23.5 84.5 t-66.5 33.5q-41 0 -63.5 -33.5t-22.5 -84.5z" />
<glyph unicode="&#xc6;" horiz-adv-x="1974" d="M-29 70l47 12q57 16 94.5 37.5t65.5 73.5l713 1277h629q176 0 233 43l37 27l33 -27v-364l-70 -25l-12 47q-20 76 -44 114t-65 53.5t-114 15.5h-199q-55 0 -83 -12.5t-38 -45t-10 -98.5v-455h260q49 0 87 21.5t75 73.5l16 22l41 -22v-351l-70 -24l-12 47q-18 70 -64 93.5 t-159 23.5h-174v-355q0 -66 10 -98.5t38 -44.5t83 -12h221q74 0 115 15t64.5 53t43.5 114l13 47l69 -24v-351l-41 -22l-16 22q-23 29 -86 29h-862l-23 66l43 12q76 23 100.5 57.5t24.5 122.5v369h-405l-170 -312q-29 -51 -36 -82.5t-7 -70.5q0 -33 26 -92l19 -37l-39 -33 h-377zM645 743h340v619z" />
<glyph unicode="&#xc7;" horiz-adv-x="1263" d="M72 733q0 217 73.5 390t222 274.5t365.5 101.5q133 0 238.5 -38t164 -106.5t58.5 -156.5q0 -104 -62.5 -172t-156.5 -68q-43 0 -43 25q0 6 17.5 35t30.5 64.5t13 86.5q0 96 -71.5 155.5t-188.5 59.5q-152 0 -248 -94t-139 -241.5t-43 -315.5q0 -172 54.5 -313t154.5 -224 t233 -83q131 0 227.5 48t157.5 136q6 8 15 8q18 0 41.5 -19.5t23.5 -37.5q0 -6 -6 -17q-176 -260 -477 -260q-39 0 -59 2l-90 -116q35 8 77 8q98 0 165 -59.5t67 -172.5q0 -63 -37 -118.5t-100.5 -87t-141.5 -31.5q-90 0 -156.5 42t-66.5 116q0 53 38 85.5t93 32.5 q16 0 25.5 -6t9.5 -14q0 -6 -14.5 -28.5t-14.5 -61.5q0 -35 24.5 -57.5t59.5 -22.5q59 0 94 46t35 110q0 61 -35.5 106t-101.5 45q-55 0 -113 -35l-41 37l148 193q-254 45 -387 249.5t-133 499.5z" />
<glyph unicode="&#xc8;" horiz-adv-x="1249" d="M92 66l43 12q76 23 100.5 57.5t24.5 122.5v801q0 123 -20.5 198.5t-71.5 143.5l-27 37l27 32h627q176 0 233 43l37 27l33 -27v-364l-70 -25l-12 47q-20 76 -44 114t-65 53.5t-114 15.5h-199q-55 0 -83 -12.5t-38 -45t-10 -98.5v-393h260q49 0 87 21.5t75 72.5l16 23 l41 -23v-350l-70 -25l-12 47q-18 70 -64 93.5t-159 23.5h-174v-416q0 -66 10 -98.5t38 -44.5t83 -12h221q74 0 115 15t64.5 53t43.5 114l13 47l69 -24v-351l-41 -22l-16 22q-23 29 -86 29h-862zM430 1880q0 43 23.5 77t62.5 52l319 -319l-59 -72l-232 115q-61 31 -87.5 66.5 t-26.5 80.5z" />
<glyph unicode="&#xc9;" horiz-adv-x="1249" d="M92 66l43 12q76 23 100.5 57.5t24.5 122.5v801q0 123 -20.5 198.5t-71.5 143.5l-27 37l27 32h627q176 0 233 43l37 27l33 -27v-364l-70 -25l-12 47q-20 76 -44 114t-65 53.5t-114 15.5h-199q-55 0 -83 -12.5t-38 -45t-10 -98.5v-393h260q49 0 87 21.5t75 72.5l16 23 l41 -23v-350l-70 -25l-12 47q-18 70 -64 93.5t-159 23.5h-174v-416q0 -66 10 -98.5t38 -44.5t83 -12h221q74 0 115 15t64.5 53t43.5 114l13 47l69 -24v-351l-41 -22l-16 22q-23 29 -86 29h-862zM491 1690l320 319q38 -18 62 -52t24 -77q0 -45 -27 -80.5t-88 -66.5l-232 -115 z" />
<glyph unicode="&#xca;" horiz-adv-x="1249" d="M92 66l43 12q76 23 100.5 57.5t24.5 122.5v801q0 123 -20.5 198.5t-71.5 143.5l-27 37l27 32h627q176 0 233 43l37 27l33 -27v-364l-70 -25l-12 47q-20 76 -44 114t-65 53.5t-114 15.5h-199q-55 0 -83 -12.5t-38 -45t-10 -98.5v-393h260q49 0 87 21.5t75 72.5l16 23 l41 -23v-350l-70 -25l-12 47q-18 70 -64 93.5t-159 23.5h-174v-416q0 -66 10 -98.5t38 -44.5t83 -12h221q74 0 115 15t64.5 53t43.5 114l13 47l69 -24v-351l-41 -22l-16 22q-23 29 -86 29h-862zM372 1676q66 115 139.5 207t114.5 116h56q37 -22 112.5 -116.5t139.5 -206.5 l-66 -58l-215 170l-213 -170z" />
<glyph unicode="&#xcb;" horiz-adv-x="1249" d="M92 66l43 12q76 23 100.5 57.5t24.5 122.5v801q0 123 -20.5 198.5t-71.5 143.5l-27 37l27 32h627q176 0 233 43l37 27l33 -27v-364l-70 -25l-12 47q-20 76 -44 114t-65 53.5t-114 15.5h-199q-55 0 -83 -12.5t-38 -45t-10 -98.5v-393h260q49 0 87 21.5t75 72.5l16 23 l41 -23v-350l-70 -25l-12 47q-18 70 -64 93.5t-159 23.5h-174v-416q0 -66 10 -98.5t38 -44.5t83 -12h221q74 0 115 15t64.5 53t43.5 114l13 47l69 -24v-351l-41 -22l-16 22q-23 29 -86 29h-862zM332 1801q0 38 44 86.5t81 48.5q39 0 84 -47t45 -88q0 -39 -45.5 -86.5 t-83.5 -47.5q-35 0 -80 47.5t-45 86.5zM719 1801q0 38 44 86.5t81 48.5q39 0 84 -47t45 -88q0 -39 -45 -86.5t-84 -47.5q-35 0 -80 47.5t-45 86.5z" />
<glyph unicode="&#xcc;" horiz-adv-x="722" d="M82 70l47 12q78 23 104.5 59.5t26.5 130.5v926q0 94 -26.5 131t-104.5 60l-47 12l24 69h449l27 -32l-27 -37q-51 -68 -71.5 -143.5t-20.5 -198.5v-801q0 -88 24.5 -123t100.5 -57l43 -12l-23 -66h-502zM158 1880q0 43 23.5 77t62.5 52l319 -319l-59 -72l-232 115 q-61 31 -87.5 66.5t-26.5 80.5z" />
<glyph unicode="&#xcd;" horiz-adv-x="722" d="M82 70l47 12q78 23 104.5 59.5t26.5 130.5v926q0 94 -26.5 131t-104.5 60l-47 12l24 69h449l27 -32l-27 -37q-51 -68 -71.5 -143.5t-20.5 -198.5v-801q0 -88 24.5 -123t100.5 -57l43 -12l-23 -66h-502zM178 1690l320 319q38 -18 62 -52t24 -77q0 -45 -27 -80.5t-88 -66.5 l-232 -115z" />
<glyph unicode="&#xce;" horiz-adv-x="722" d="M79 1676q66 115 139.5 207t114.5 116h56q37 -22 112.5 -116.5t139.5 -206.5l-66 -58l-215 170l-213 -170zM82 70l47 12q78 23 104.5 59.5t26.5 130.5v926q0 94 -26.5 131t-104.5 60l-47 12l24 69h449l27 -32l-27 -37q-51 -68 -71.5 -143.5t-20.5 -198.5v-801 q0 -88 24.5 -123t100.5 -57l43 -12l-23 -66h-502z" />
<glyph unicode="&#xcf;" horiz-adv-x="722" d="M41 1801q0 38 44 86.5t81 48.5q39 0 84 -47t45 -88q0 -39 -45.5 -86.5t-83.5 -47.5q-35 0 -80 47.5t-45 86.5zM82 70l47 12q78 23 104.5 59.5t26.5 130.5v926q0 94 -26.5 131t-104.5 60l-47 12l24 69h449l27 -32l-27 -37q-51 -68 -71.5 -143.5t-20.5 -198.5v-801 q0 -88 24.5 -123t100.5 -57l43 -12l-23 -66h-502zM428 1801q0 38 44 86.5t81 48.5q39 0 84 -47t45 -88q0 -39 -45 -86.5t-84 -47.5q-35 0 -80 47.5t-45 86.5z" />
<glyph unicode="&#xd0;" d="M20 680q0 94 48 129h192v475q0 27 -10 38t-35 11h-119l-24 76q98 35 253.5 62.5t301.5 27.5q428 0 615.5 -212t187.5 -554q0 -209 -77 -374.5t-229.5 -262t-373.5 -96.5h-644l-24 70l47 12q66 18 98.5 54t32.5 114v430h-240zM463 358q0 -145 60.5 -199.5t160.5 -54.5 q522 0 522 633q0 172 -59.5 319.5t-181 237.5t-301.5 90q-201 0 -201 -94v-481h399q0 -92 -47 -129h-352v-322z" />
<glyph unicode="&#xd1;" horiz-adv-x="1595" d="M70 70l47 12q78 23 104.5 59.5t26.5 130.5v926q0 94 -26.5 131t-104.5 60l-47 12l24 69h330l782 -1161v889q0 94 -26.5 131t-104.5 60l-47 12l25 69h389l26 -32l-26 -37q-51 -68 -71.5 -143.5t-20.5 -198.5v-879q0 -39 6 -63.5t22 -46.5l27 -37l-27 -33h-207l-780 1157 v-745q0 -123 20.5 -199t71.5 -143l27 -37l-27 -33h-389zM481 1727q68 92 136.5 145.5t127.5 53.5q31 0 54.5 -10.5t56.5 -28.5q29 -16 45 -24.5t37 -8.5q57 0 139 80l70 -64q-66 -92 -135.5 -145t-127.5 -53q-33 0 -59.5 11t-54.5 30q-27 16 -43.5 23t-36.5 7 q-57 0 -137 -80z" />
<glyph unicode="&#xd2;" d="M72 733q0 217 75.5 390t228 274.5t374.5 101.5q221 0 373.5 -101.5t229.5 -274.5t77 -390t-77 -389t-229.5 -272.5t-373.5 -100.5t-374 100.5t-228.5 272.5t-75.5 389zM293 717q0 -178 51 -319.5t152.5 -223.5t244.5 -82t249 84t161 228.5t55 322.5q0 147 -42 298 t-142 254t-262 103q-145 0 -251 -89t-161 -240.5t-55 -335.5zM547 1880q0 43 23.5 77t62.5 52l319 -319l-59 -72l-232 115q-61 31 -87.5 66.5t-26.5 80.5z" />
<glyph unicode="&#xd3;" d="M72 733q0 217 75.5 390t228 274.5t374.5 101.5q221 0 373.5 -101.5t229.5 -274.5t77 -390t-77 -389t-229.5 -272.5t-373.5 -100.5t-374 100.5t-228.5 272.5t-75.5 389zM293 717q0 -178 51 -319.5t152.5 -223.5t244.5 -82t249 84t161 228.5t55 322.5q0 147 -42 298 t-142 254t-262 103q-145 0 -251 -89t-161 -240.5t-55 -335.5zM547 1690l320 319q38 -18 62 -52t24 -77q0 -45 -27 -80.5t-88 -66.5l-232 -115z" />
<glyph unicode="&#xd4;" d="M72 733q0 217 75.5 390t228 274.5t374.5 101.5q221 0 373.5 -101.5t229.5 -274.5t77 -390t-77 -389t-229.5 -272.5t-373.5 -100.5t-374 100.5t-228.5 272.5t-75.5 389zM293 717q0 -178 51 -319.5t152.5 -223.5t244.5 -82t249 84t161 228.5t55 322.5q0 147 -42 298 t-142 254t-262 103q-145 0 -251 -89t-161 -240.5t-55 -335.5zM469 1676q66 115 139.5 207t114.5 116h56q37 -22 112.5 -116.5t139.5 -206.5l-66 -58l-215 170l-213 -170z" />
<glyph unicode="&#xd5;" d="M72 733q0 217 75.5 390t228 274.5t374.5 101.5q221 0 373.5 -101.5t229.5 -274.5t77 -390t-77 -389t-229.5 -272.5t-373.5 -100.5t-374 100.5t-228.5 272.5t-75.5 389zM293 717q0 -178 51 -319.5t152.5 -223.5t244.5 -82t249 84t161 228.5t55 322.5q0 147 -42 298 t-142 254t-262 103q-145 0 -251 -89t-161 -240.5t-55 -335.5zM418 1727q68 92 136.5 145.5t127.5 53.5q31 0 54.5 -10.5t56.5 -28.5q29 -16 45 -24.5t37 -8.5q57 0 139 80l70 -64q-66 -92 -135.5 -145t-127.5 -53q-33 0 -59.5 11t-54.5 30q-27 16 -43.5 23t-36.5 7 q-57 0 -137 -80z" />
<glyph unicode="&#xd6;" d="M72 733q0 217 75.5 390t228 274.5t374.5 101.5q221 0 373.5 -101.5t229.5 -274.5t77 -390t-77 -389t-229.5 -272.5t-373.5 -100.5t-374 100.5t-228.5 272.5t-75.5 389zM293 717q0 -178 51 -319.5t152.5 -223.5t244.5 -82t249 84t161 228.5t55 322.5q0 147 -42 298 t-142 254t-262 103q-145 0 -251 -89t-161 -240.5t-55 -335.5zM430 1801q0 38 44 86.5t81 48.5q39 0 84 -47t45 -88q0 -39 -45.5 -86.5t-83.5 -47.5q-35 0 -80 47.5t-45 86.5zM817 1801q0 38 44 86.5t81 48.5q39 0 84 -47t45 -88q0 -39 -45 -86.5t-84 -47.5q-35 0 -80 47.5 t-45 86.5z" />
<glyph unicode="&#xd7;" horiz-adv-x="1271" d="M229 434l295 297l-295 297l111 111l295 -297l297 297l110 -111l-297 -297l297 -297l-110 -110l-297 297l-295 -297z" />
<glyph unicode="&#xd8;" d="M72 733q0 217 75.5 390t228 274.5t374.5 101.5q96 0 190 -22l43 122h147l-61 -169q176 -91 268.5 -275t92.5 -422q0 -217 -77 -389t-229.5 -272.5t-373.5 -100.5q-96 0 -191 23l-43 -123h-145l59 170q-176 86 -267 269.5t-91 422.5zM293 717q0 -172 48 -311.5t140 -219.5 l416 1172q-61 25 -137 24q-145 0 -251 -89t-161 -240.5t-55 -335.5zM602 115q68 -23 139 -23q144 0 249.5 84t160.5 228.5t55 322.5q0 154 -45 308.5t-143 246.5z" />
<glyph unicode="&#xd9;" horiz-adv-x="1513" d="M49 1401l25 69h448l27 -32l-27 -37q-51 -68 -71.5 -143.5t-20.5 -198.5v-608q0 -162 102.5 -256.5t258.5 -94.5t258 94.5t102 256.5v747q0 94 -26.5 131t-104.5 60l-47 12l24 69h389l27 -32l-27 -37q-51 -68 -71.5 -143.5t-20.5 -198.5v-608q0 -242 -147.5 -361 t-382.5 -119q-240 0 -388.5 119t-148.5 361v747q0 94 -26.5 131t-104.5 60zM553 1880q0 43 23.5 77t62.5 52l319 -319l-59 -72l-232 115q-61 31 -87.5 66.5t-26.5 80.5z" />
<glyph unicode="&#xda;" horiz-adv-x="1513" d="M49 1401l25 69h448l27 -32l-27 -37q-51 -68 -71.5 -143.5t-20.5 -198.5v-608q0 -162 102.5 -256.5t258.5 -94.5t258 94.5t102 256.5v747q0 94 -26.5 131t-104.5 60l-47 12l24 69h389l27 -32l-27 -37q-51 -68 -71.5 -143.5t-20.5 -198.5v-608q0 -242 -147.5 -361 t-382.5 -119q-240 0 -388.5 119t-148.5 361v747q0 94 -26.5 131t-104.5 60zM627 1690l320 319q38 -18 62 -52t24 -77q0 -45 -27 -80.5t-88 -66.5l-232 -115z" />
<glyph unicode="&#xdb;" horiz-adv-x="1513" d="M49 1401l25 69h448l27 -32l-27 -37q-51 -68 -71.5 -143.5t-20.5 -198.5v-608q0 -162 102.5 -256.5t258.5 -94.5t258 94.5t102 256.5v747q0 94 -26.5 131t-104.5 60l-47 12l24 69h389l27 -32l-27 -37q-51 -68 -71.5 -143.5t-20.5 -198.5v-608q0 -242 -147.5 -361 t-382.5 -119q-240 0 -388.5 119t-148.5 361v747q0 94 -26.5 131t-104.5 60zM510 1676q66 115 139.5 207t114.5 116h56q37 -22 112.5 -116.5t139.5 -206.5l-66 -58l-215 170l-213 -170z" />
<glyph unicode="&#xdc;" horiz-adv-x="1513" d="M49 1401l25 69h448l27 -32l-27 -37q-51 -68 -71.5 -143.5t-20.5 -198.5v-608q0 -162 102.5 -256.5t258.5 -94.5t258 94.5t102 256.5v747q0 94 -26.5 131t-104.5 60l-47 12l24 69h389l27 -32l-27 -37q-51 -68 -71.5 -143.5t-20.5 -198.5v-608q0 -242 -147.5 -361 t-382.5 -119q-240 0 -388.5 119t-148.5 361v747q0 94 -26.5 131t-104.5 60zM463 1801q0 38 44 86.5t81 48.5q39 0 84 -47t45 -88q0 -39 -45.5 -86.5t-83.5 -47.5q-35 0 -80 47.5t-45 86.5zM850 1801q0 38 44 86.5t81 48.5q39 0 84 -47t45 -88q0 -39 -45 -86.5t-84 -47.5 q-35 0 -80 47.5t-45 86.5z" />
<glyph unicode="&#xdd;" horiz-adv-x="1282" d="M10 1438l27 32h461l24 -69l-47 -12q-49 -12 -70.5 -33t-21.5 -58q0 -23 28.5 -70.5t34.5 -58.5l222 -387l231 414q25 47 25 84q0 41 -26 69.5t-60 39.5l-47 12l24 69h389l27 -32l-31 -37q-72 -86 -145 -217l-318 -563v-349q0 -92 29 -131t106 -59l48 -12l-25 -70h-449 l-26 33l26 37q51 72 74 146.5t23 195.5v192l-328 576q-55 98 -98 153.5t-107 104.5zM535 1690l320 319q38 -18 62 -52t24 -77q0 -45 -27 -80.5t-88 -66.5l-232 -115z" />
<glyph unicode="&#xde;" horiz-adv-x="1220" d="M82 70l47 12q78 23 104.5 59.5t26.5 130.5v926q0 94 -26.5 131t-104.5 60l-47 12l24 69h449l27 -32l-27 -37q-37 -49 -57.5 -98.5t-28.5 -112.5q115 41 227 41q137 0 248 -64.5t173.5 -176t62.5 -247.5q0 -133 -53.5 -240.5t-164 -172t-274.5 -64.5q-76 0 -128 18.5 t-52 53.5q0 20 8 34.5t25 14.5q8 0 33.5 -7t66.5 -7q154 0 240 98t86 266q0 170 -85 277.5t-241 107.5q-178 0 -178 -102v-762q0 -88 24.5 -123t100.5 -57l43 -12l-23 -66h-502z" />
<glyph unicode="&#xdf;" horiz-adv-x="1300" d="M27 70l47 12q78 23 104.5 59.5t26.5 130.5v805q0 166 64.5 285t180 179.5t267.5 60.5q133 0 219 -68t86 -195q0 -70 -37 -126t-111 -134q-63 -70 -93.5 -114.5t-30.5 -96.5q0 -51 25.5 -89t82.5 -66l146 -74q260 -133 260 -342q0 -88 -47.5 -163t-132.5 -119t-193 -44 q-139 0 -236 52q-18 12 -18 40q0 20 7 36t24 16q14 0 41 -11q88 -31 184 -30q76 0 133 41t57 125q0 78 -52 137t-150 110l-154 78q-84 53 -122 105.5t-38 138.5q0 51 31 103.5t92 129.5q74 96 110 161t36 136q0 84 -48.5 120t-119.5 36q-133 0 -196.5 -104.5t-63.5 -280.5 v-698q0 -123 20.5 -199t71.5 -143l26 -37l-26 -33h-449z" />
<glyph unicode="&#xe0;" horiz-adv-x="1236" d="M92 469q0 176 64.5 306t184.5 199.5t282 69.5q80 0 225 -26q123 -20 184 -25l23 -26l-25 -37q-14 -20 -20 -38t-6 -42v-670q0 -63 61 -63q51 0 102 37l39 -54q-53 -59 -114.5 -94t-112.5 -35q-84 0 -121 51.5t-37 165.5q-84 -118 -172 -167.5t-190 -49.5q-98 0 -182 56.5 t-134.5 169t-50.5 272.5zM307 508q0 -195 66.5 -287t167.5 -92q82 0 153.5 46t126.5 140v553q-94 63 -200 64q-150 0 -232 -111.5t-82 -312.5zM416 1427q0 43 23.5 77t62.5 52l319 -319l-59 -72l-232 115q-61 31 -87.5 66.5t-26.5 80.5z" />
<glyph unicode="&#xe1;" horiz-adv-x="1236" d="M92 469q0 176 64.5 306t184.5 199.5t282 69.5q80 0 225 -26q123 -20 184 -25l23 -26l-25 -37q-14 -20 -20 -38t-6 -42v-670q0 -63 61 -63q51 0 102 37l39 -54q-53 -59 -114.5 -94t-112.5 -35q-84 0 -121 51.5t-37 165.5q-84 -118 -172 -167.5t-190 -49.5q-98 0 -182 56.5 t-134.5 169t-50.5 272.5zM307 508q0 -195 66.5 -287t167.5 -92q82 0 153.5 46t126.5 140v553q-94 63 -200 64q-150 0 -232 -111.5t-82 -312.5zM416 1237l320 319q38 -18 62 -52t24 -77q0 -45 -27 -80.5t-88 -66.5l-232 -115z" />
<glyph unicode="&#xe2;" horiz-adv-x="1236" d="M92 469q0 176 64.5 306t184.5 199.5t282 69.5q80 0 225 -26q123 -20 184 -25l23 -26l-25 -37q-14 -20 -20 -38t-6 -42v-670q0 -63 61 -63q51 0 102 37l39 -54q-53 -59 -114.5 -94t-112.5 -35q-84 0 -121 51.5t-37 165.5q-84 -118 -172 -167.5t-190 -49.5q-98 0 -182 56.5 t-134.5 169t-50.5 272.5zM307 508q0 -195 66.5 -287t167.5 -92q82 0 153.5 46t126.5 140v553q-94 63 -200 64q-150 0 -232 -111.5t-82 -312.5zM338 1223q66 115 139.5 207t114.5 116h56q37 -22 112.5 -116.5t139.5 -206.5l-66 -58l-215 170l-213 -170z" />
<glyph unicode="&#xe3;" horiz-adv-x="1236" d="M92 469q0 176 64.5 306t184.5 199.5t282 69.5q80 0 225 -26q123 -20 184 -25l23 -26l-25 -37q-14 -20 -20 -38t-6 -42v-670q0 -63 61 -63q51 0 102 37l39 -54q-53 -59 -114.5 -94t-112.5 -35q-84 0 -121 51.5t-37 165.5q-84 -118 -172 -167.5t-190 -49.5q-98 0 -182 56.5 t-134.5 169t-50.5 272.5zM285 1274q68 92 136.5 145.5t127.5 53.5q31 0 54.5 -10.5t56.5 -28.5q29 -16 45 -24.5t37 -8.5q57 0 139 80l70 -64q-66 -92 -135.5 -145t-127.5 -53q-33 0 -59.5 11t-54.5 30q-27 16 -43.5 23t-36.5 7q-57 0 -137 -80zM307 508q0 -195 66.5 -287 t167.5 -92q82 0 153.5 46t126.5 140v553q-94 63 -200 64q-150 0 -232 -111.5t-82 -312.5z" />
<glyph unicode="&#xe4;" horiz-adv-x="1236" d="M92 469q0 176 64.5 306t184.5 199.5t282 69.5q80 0 225 -26q123 -20 184 -25l23 -26l-25 -37q-14 -20 -20 -38t-6 -42v-670q0 -63 61 -63q51 0 102 37l39 -54q-53 -59 -114.5 -94t-112.5 -35q-84 0 -121 51.5t-37 165.5q-84 -118 -172 -167.5t-190 -49.5q-98 0 -182 56.5 t-134.5 169t-50.5 272.5zM297 1348q0 38 44 86.5t81 48.5q39 0 84 -47t45 -88q0 -39 -45.5 -86.5t-83.5 -47.5q-35 0 -80 47.5t-45 86.5zM307 508q0 -195 66.5 -287t167.5 -92q82 0 153.5 46t126.5 140v553q-94 63 -200 64q-150 0 -232 -111.5t-82 -312.5zM684 1348 q0 38 44 86.5t81 48.5q39 0 84 -47t45 -88q0 -39 -45 -86.5t-84 -47.5q-35 0 -80 47.5t-45 86.5z" />
<glyph unicode="&#xe5;" horiz-adv-x="1236" d="M92 469q0 176 64.5 306t184.5 199.5t282 69.5q80 0 225 -26q123 -20 184 -25l23 -26l-25 -37q-14 -20 -20 -38t-6 -42v-670q0 -63 61 -63q51 0 102 37l39 -54q-53 -59 -114.5 -94t-112.5 -35q-84 0 -121 51.5t-37 165.5q-84 -118 -172 -167.5t-190 -49.5q-98 0 -182 56.5 t-134.5 169t-50.5 272.5zM307 508q0 -195 66.5 -287t167.5 -92q82 0 153.5 46t126.5 140v553q-94 63 -200 64q-150 0 -232 -111.5t-82 -312.5zM385 1348q0 96 59.5 157.5t170.5 61.5q115 0 175 -61.5t60 -157.5t-60.5 -157t-174.5 -61q-111 0 -170.5 60.5t-59.5 157.5z M529 1348q0 -52 22.5 -85.5t63.5 -33.5q43 0 66.5 33.5t23.5 85.5q0 51 -23.5 84.5t-66.5 33.5q-41 0 -63.5 -33.5t-22.5 -84.5z" />
<glyph unicode="&#xe6;" horiz-adv-x="1771" d="M92 272q0 90 46 171t134 132.5t211 51.5q72 0 159 -24.5t87 -72.5q0 -16 -9 -30.5t-22 -14.5q-8 0 -48 13.5t-103 13.5q-123 0 -191.5 -71.5t-68.5 -170.5q0 -78 51 -133t143 -55q141 0 220 113.5t79 324.5q0 182 -77.5 285.5t-225.5 103.5q-109 0 -168 -22.5t-93 -46 t-42 -23.5q-16 0 -34.5 19.5t-18.5 40.5q0 23 54 63.5t145.5 72t199.5 31.5q119 0 216.5 -49t158.5 -137q70 90 176.5 138t239.5 48q113 0 191.5 -41.5t117.5 -110.5t39 -149q0 -86 -46 -165.5t-134 -130t-211 -50.5q-66 0 -146 24.5t-80 72.5q0 16 9.5 30.5t21.5 14.5 q6 0 41 -13.5t90 -13.5q123 0 191.5 69.5t68.5 163.5q0 80 -51 138.5t-143 58.5q-131 0 -205 -115.5t-74 -330.5q0 -182 78 -286t225 -104q180 0 299 117q8 8 19 8q16 0 34.5 -19t18.5 -40q0 -10 -8 -18q-76 -88 -180.5 -135.5t-225.5 -47.5q-141 0 -247.5 64.5 t-163.5 181.5q-53 -117 -155.5 -181.5t-244.5 -64.5q-113 0 -191.5 42t-117.5 111t-39 148z" />
<glyph unicode="&#xe7;" horiz-adv-x="1042" d="M92 506q0 162 61.5 283.5t173 188t261.5 66.5q158 0 259 -76.5t101 -197.5q0 -88 -56 -144.5t-144 -56.5q-39 0 -39 23q0 6 14 28.5t24.5 55.5t10.5 84q0 82 -52.5 130t-140.5 48q-117 0 -188.5 -114.5t-71.5 -301.5q0 -190 85 -301.5t231 -111.5q147 0 270 102q6 6 18 6 q17 0 34.5 -18.5t17.5 -38.5q0 -12 -7 -19q-72 -82 -167 -126t-201 -44q-35 0 -51 2l-91 -116q35 8 78 8q98 0 165 -59.5t67 -172.5q0 -63 -37 -118.5t-100.5 -87t-141.5 -31.5q-90 0 -156.5 42t-66.5 116q0 53 38 85.5t93 32.5q16 0 25.5 -6t9.5 -14q0 -6 -14.5 -28.5 t-14.5 -61.5q0 -35 24.5 -57.5t59.5 -22.5q59 0 94 46t35 110q0 61 -36 106t-101 45q-55 0 -113 -35l-41 37l150 195q-166 41 -267.5 183t-101.5 337z" />
<glyph unicode="&#xe8;" horiz-adv-x="1083" d="M92 496q0 164 65.5 287.5t185.5 192t280 68.5q113 0 191.5 -41.5t117.5 -110.5t39 -149q0 -86 -46 -165.5t-134.5 -130t-210.5 -50.5q-66 0 -146 24.5t-80 72.5q0 16 9.5 30.5t21.5 14.5q6 0 41 -13.5t90 -13.5q123 0 191.5 69.5t68.5 163.5q0 80 -51 138.5t-143 58.5 q-131 0 -205 -115.5t-74 -330.5q0 -182 78 -286t225 -104q180 0 299 117q8 8 19 8q16 0 34.5 -19t18.5 -40q0 -10 -8 -18q-76 -88 -180.5 -135.5t-225.5 -47.5q-141 0 -247.5 65.5t-165 184.5t-58.5 275zM338 1427q0 43 23.5 77t62.5 52l319 -319l-59 -72l-232 115 q-61 31 -87.5 66.5t-26.5 80.5z" />
<glyph unicode="&#xe9;" horiz-adv-x="1083" d="M92 496q0 164 65.5 287.5t185.5 192t280 68.5q113 0 191.5 -41.5t117.5 -110.5t39 -149q0 -86 -46 -165.5t-134.5 -130t-210.5 -50.5q-66 0 -146 24.5t-80 72.5q0 16 9.5 30.5t21.5 14.5q6 0 41 -13.5t90 -13.5q123 0 191.5 69.5t68.5 163.5q0 80 -51 138.5t-143 58.5 q-131 0 -205 -115.5t-74 -330.5q0 -182 78 -286t225 -104q180 0 299 117q8 8 19 8q16 0 34.5 -19t18.5 -40q0 -10 -8 -18q-76 -88 -180.5 -135.5t-225.5 -47.5q-141 0 -247.5 65.5t-165 184.5t-58.5 275zM338 1237l320 319q38 -18 62 -52t24 -77q0 -45 -27 -80.5t-88 -66.5 l-232 -115z" />
<glyph unicode="&#xea;" horiz-adv-x="1083" d="M92 496q0 164 65.5 287.5t185.5 192t280 68.5q113 0 191.5 -41.5t117.5 -110.5t39 -149q0 -86 -46 -165.5t-134.5 -130t-210.5 -50.5q-66 0 -146 24.5t-80 72.5q0 16 9.5 30.5t21.5 14.5q6 0 41 -13.5t90 -13.5q123 0 191.5 69.5t68.5 163.5q0 80 -51 138.5t-143 58.5 q-131 0 -205 -115.5t-74 -330.5q0 -182 78 -286t225 -104q180 0 299 117q8 8 19 8q16 0 34.5 -19t18.5 -40q0 -10 -8 -18q-76 -88 -180.5 -135.5t-225.5 -47.5q-141 0 -247.5 65.5t-165 184.5t-58.5 275zM260 1223q66 115 139.5 207t114.5 116h56q37 -22 112.5 -116.5 t139.5 -206.5l-66 -58l-215 170l-213 -170z" />
<glyph unicode="&#xeb;" horiz-adv-x="1083" d="M92 496q0 164 65.5 287.5t185.5 192t280 68.5q113 0 191.5 -41.5t117.5 -110.5t39 -149q0 -86 -46 -165.5t-134.5 -130t-210.5 -50.5q-66 0 -146 24.5t-80 72.5q0 16 9.5 30.5t21.5 14.5q6 0 41 -13.5t90 -13.5q123 0 191.5 69.5t68.5 163.5q0 80 -51 138.5t-143 58.5 q-131 0 -205 -115.5t-74 -330.5q0 -182 78 -286t225 -104q180 0 299 117q8 8 19 8q16 0 34.5 -19t18.5 -40q0 -10 -8 -18q-76 -88 -180.5 -135.5t-225.5 -47.5q-141 0 -247.5 65.5t-165 184.5t-58.5 275zM222 1348q0 38 44 86.5t81 48.5q39 0 84 -47t45 -88 q0 -39 -45.5 -86.5t-83.5 -47.5q-35 0 -80 47.5t-45 86.5zM609 1348q0 38 44 86.5t81 48.5q39 0 84 -47t45 -88q0 -39 -45 -86.5t-84 -47.5q-35 0 -80 47.5t-45 86.5z" />
<glyph unicode="&#xec;" horiz-adv-x="638" d="M72 922q59 53 135 87.5t135 34.5q29 0 47.5 -18t18.5 -47l-2 -799q0 -69 61 -69q51 0 102 43l39 -54q-53 -59 -114.5 -94t-114.5 -35q-84 0 -121 51.5t-37 165.5v635q0 25 -9 35t-32 10h-90zM117 1427q0 43 23.5 77t62.5 52l319 -319l-59 -72l-232 115q-61 31 -87.5 66.5 t-26.5 80.5z" />
<glyph unicode="&#xed;" horiz-adv-x="638" d="M72 922q59 53 135 87.5t135 34.5q29 0 47.5 -18t18.5 -47l-2 -799q0 -69 61 -69q51 0 102 43l39 -54q-53 -59 -114.5 -94t-114.5 -35q-84 0 -121 51.5t-37 165.5v635q0 25 -9 35t-32 10h-90zM117 1237l320 319q38 -18 62 -52t24 -77q0 -45 -27 -80.5t-88 -66.5l-232 -115 z" />
<glyph unicode="&#xee;" horiz-adv-x="638" d="M39 1223q66 115 139.5 207t114.5 116h56q37 -22 112.5 -116.5t139.5 -206.5l-66 -58l-215 170l-213 -170zM72 922q59 53 135 87.5t135 34.5q29 0 47.5 -18t18.5 -47l-2 -799q0 -69 61 -69q51 0 102 43l39 -54q-53 -59 -114.5 -94t-114.5 -35q-84 0 -121 51.5t-37 165.5 v635q0 25 -9 35t-32 10h-90z" />
<glyph unicode="&#xef;" horiz-adv-x="638" d="M0 1348q0 38 44 86.5t81 48.5q39 0 84 -47t45 -88q0 -39 -45.5 -86.5t-83.5 -47.5q-35 0 -80 47.5t-45 86.5zM72 922q59 53 135 87.5t135 34.5q29 0 47.5 -18t18.5 -47l-2 -799q0 -69 61 -69q51 0 102 43l39 -54q-53 -59 -114.5 -94t-114.5 -35q-84 0 -121 51.5 t-37 165.5v635q0 25 -9 35t-32 10h-90zM387 1348q0 38 44 86.5t81 48.5q39 0 84 -47t45 -88q0 -39 -45 -86.5t-84 -47.5q-35 0 -80 47.5t-45 86.5z" />
<glyph unicode="&#xf0;" horiz-adv-x="1196" d="M88 487q0 238 137 377.5t373 139.5q174 0 285 -123q-37 197 -95 336l-202 -103q0 82 8 118t35 48l104 51q-53 92 -116.5 143.5t-133.5 51.5q-74 0 -115.5 -48t-41.5 -118q0 -61 19.5 -99t44 -64t24.5 -32q0 -20 -33 -20q-106 0 -167.5 64.5t-61.5 152.5q0 66 36.5 125 t112.5 95t184 36q223 0 381 -219l279 139q0 -84 -8.5 -118t-34.5 -48l-170 -84q90 -176 133 -398t43 -403q0 -156 -62.5 -272.5t-178 -180t-269.5 -63.5q-156 0 -270.5 63.5t-177 180.5t-62.5 272zM301 487q0 -121 41 -213t114.5 -142t166.5 -50q135 0 215 104.5t80 282.5 q0 125 -41 222t-116 151.5t-169 54.5q-133 0 -212 -110.5t-79 -299.5z" />
<glyph unicode="&#xf1;" horiz-adv-x="1318" d="M82 901q59 53 136 88t134 35q29 0 47.5 -18.5t18.5 -47.5v-219q53 133 159.5 219t223.5 86q143 0 208.5 -88t65.5 -280v-496q0 -70 62 -69q47 0 102 43l39 -54q-53 -59 -114.5 -94t-114.5 -35q-84 0 -121 51.5t-37 165.5v488q0 209 -176 209q-88 0 -154.5 -70 t-104.5 -196.5t-38 -290.5q0 -97 14 -154t51 -111l25 -32l-25 -31h-358l-23 63l43 11q51 12 68.5 44t17.5 109v576q0 25 -9 35t-32 10h-90zM326 1274q68 92 136.5 145.5t127.5 53.5q31 0 54.5 -10.5t56.5 -28.5q29 -16 45 -24.5t37 -8.5q57 0 139 80l70 -64 q-66 -92 -135.5 -145t-127.5 -53q-33 0 -59.5 11t-54.5 30q-27 16 -43.5 23t-36.5 7q-57 0 -137 -80z" />
<glyph unicode="&#xf2;" horiz-adv-x="1183" d="M92 508q0 164 60.5 284.5t174 186t265.5 65.5t264.5 -65.5t174 -186t61.5 -284.5q0 -162 -61.5 -284t-174.5 -187.5t-264 -65.5q-152 0 -265.5 65.5t-174 187.5t-60.5 284zM305 506q0 -195 76 -309.5t205 -114.5q84 0 150.5 52t103.5 147.5t37 220.5q0 96 -27 196.5 t-89.5 170t-162.5 69.5q-86 0 -152.5 -54.5t-103.5 -152.5t-37 -225zM377 1427q0 43 23.5 77t62.5 52l319 -319l-59 -72l-232 115q-61 31 -87.5 66.5t-26.5 80.5z" />
<glyph unicode="&#xf3;" horiz-adv-x="1183" d="M92 508q0 164 60.5 284.5t174 186t265.5 65.5t264.5 -65.5t174 -186t61.5 -284.5q0 -162 -61.5 -284t-174.5 -187.5t-264 -65.5q-152 0 -265.5 65.5t-174 187.5t-60.5 284zM305 506q0 -195 76 -309.5t205 -114.5q84 0 150.5 52t103.5 147.5t37 220.5q0 96 -27 196.5 t-89.5 170t-162.5 69.5q-86 0 -152.5 -54.5t-103.5 -152.5t-37 -225zM432 1237l320 319q38 -18 62 -52t24 -77q0 -45 -27 -80.5t-88 -66.5l-232 -115z" />
<glyph unicode="&#xf4;" horiz-adv-x="1183" d="M92 508q0 164 60.5 284.5t174 186t265.5 65.5t264.5 -65.5t174 -186t61.5 -284.5q0 -162 -61.5 -284t-174.5 -187.5t-264 -65.5q-152 0 -265.5 65.5t-174 187.5t-60.5 284zM305 506q0 -195 76 -309.5t205 -114.5q84 0 150.5 52t103.5 147.5t37 220.5q0 96 -27 196.5 t-89.5 170t-162.5 69.5q-86 0 -152.5 -54.5t-103.5 -152.5t-37 -225zM315 1223q66 115 139.5 207t114.5 116h56q37 -22 112.5 -116.5t139.5 -206.5l-66 -58l-215 170l-213 -170z" />
<glyph unicode="&#xf5;" horiz-adv-x="1183" d="M92 508q0 164 60.5 284.5t174 186t265.5 65.5t264.5 -65.5t174 -186t61.5 -284.5q0 -162 -61.5 -284t-174.5 -187.5t-264 -65.5q-152 0 -265.5 65.5t-174 187.5t-60.5 284zM264 1274q68 92 136.5 145.5t127.5 53.5q31 0 54.5 -10.5t56.5 -28.5q29 -16 45 -24.5t37 -8.5 q57 0 139 80l70 -64q-66 -92 -135.5 -145t-127.5 -53q-33 0 -59.5 11t-54.5 30q-27 16 -43.5 23t-36.5 7q-57 0 -137 -80zM305 506q0 -195 76 -309.5t205 -114.5q84 0 150.5 52t103.5 147.5t37 220.5q0 96 -27 196.5t-89.5 170t-162.5 69.5q-86 0 -152.5 -54.5 t-103.5 -152.5t-37 -225z" />
<glyph unicode="&#xf6;" horiz-adv-x="1183" d="M92 508q0 164 60.5 284.5t174 186t265.5 65.5t264.5 -65.5t174 -186t61.5 -284.5q0 -162 -61.5 -284t-174.5 -187.5t-264 -65.5q-152 0 -265.5 65.5t-174 187.5t-60.5 284zM277 1348q0 38 44 86.5t81 48.5q39 0 84 -47t45 -88q0 -39 -45.5 -86.5t-83.5 -47.5 q-35 0 -80 47.5t-45 86.5zM305 506q0 -195 76 -309.5t205 -114.5q84 0 150.5 52t103.5 147.5t37 220.5q0 96 -27 196.5t-89.5 170t-162.5 69.5q-86 0 -152.5 -54.5t-103.5 -152.5t-37 -225zM664 1348q0 38 44 86.5t81 48.5q39 0 84 -47t45 -88q0 -39 -45 -86.5t-84 -47.5 q-35 0 -80 47.5t-45 86.5z" />
<glyph unicode="&#xf7;" horiz-adv-x="1271" d="M203 653v156h866v-156h-866zM508 389q0 39 44 87.5t81 48.5q39 0 84 -47.5t45 -88.5q0 -39 -45.5 -86t-83.5 -47q-35 0 -80 47.5t-45 85.5zM508 1071q0 39 44 87.5t81 48.5q39 0 84 -47.5t45 -88.5q0 -39 -45.5 -86t-83.5 -47q-35 0 -80 47.5t-45 85.5z" />
<glyph unicode="&#xf8;" horiz-adv-x="1183" d="M92 508q0 164 60.5 284.5t174 186t265.5 65.5q76 0 135 -14l45 127h111l-58 -162q127 -61 197 -186t70 -301q0 -162 -61.5 -284t-174.5 -187.5t-264 -65.5q-66 0 -127 13l-43 -123h-109l56 155q-131 59 -204 187.5t-73 304.5zM305 506q0 -117 28.5 -207t82.5 -145 l272 766q-39 18 -90 18q-86 0 -152.5 -54.5t-103.5 -152.5t-37 -225zM506 96q35 -14 80 -14q84 0 150.5 52t103.5 147.5t37 220.5q0 94 -25 190t-78 160z" />
<glyph unicode="&#xf9;" horiz-adv-x="1257" d="M61 922q53 53 130 87.5t141 34.5q29 0 47 -18t18 -47v-621q0 -123 50.5 -186t146.5 -63q137 0 214 118.5t77 327.5q0 152 -17.5 237t-62.5 162l-25 33l25 31l250 26v-864q0 -63 59 -63q47 0 100 37l39 -54q-47 -57 -109.5 -93t-115.5 -36q-82 0 -120 47.5t-38 149.5 q-47 -90 -140 -143.5t-206 -53.5q-147 0 -230 89.5t-83 250.5v512q0 45 -41 45h-90zM408 1427q0 43 23.5 77t62.5 52l319 -319l-59 -72l-232 115q-61 31 -87.5 66.5t-26.5 80.5z" />
<glyph unicode="&#xfa;" horiz-adv-x="1257" d="M61 922q53 53 130 87.5t141 34.5q29 0 47 -18t18 -47v-621q0 -123 50.5 -186t146.5 -63q137 0 214 118.5t77 327.5q0 152 -17.5 237t-62.5 162l-25 33l25 31l250 26v-864q0 -63 59 -63q47 0 100 37l39 -54q-47 -57 -109.5 -93t-115.5 -36q-82 0 -120 47.5t-38 149.5 q-47 -90 -140 -143.5t-206 -53.5q-147 0 -230 89.5t-83 250.5v512q0 45 -41 45h-90zM483 1237l320 319q38 -18 62 -52t24 -77q0 -45 -27 -80.5t-88 -66.5l-232 -115z" />
<glyph unicode="&#xfb;" horiz-adv-x="1257" d="M61 922q53 53 130 87.5t141 34.5q29 0 47 -18t18 -47v-621q0 -123 50.5 -186t146.5 -63q137 0 214 118.5t77 327.5q0 152 -17.5 237t-62.5 162l-25 33l25 31l250 26v-864q0 -63 59 -63q47 0 100 37l39 -54q-47 -57 -109.5 -93t-115.5 -36q-82 0 -120 47.5t-38 149.5 q-47 -90 -140 -143.5t-206 -53.5q-147 0 -230 89.5t-83 250.5v512q0 45 -41 45h-90zM348 1223q66 115 139.5 207t114.5 116h56q37 -22 112.5 -116.5t139.5 -206.5l-66 -58l-215 170l-213 -170z" />
<glyph unicode="&#xfc;" horiz-adv-x="1257" d="M61 922q53 53 130 87.5t141 34.5q29 0 47 -18t18 -47v-621q0 -123 50.5 -186t146.5 -63q137 0 214 118.5t77 327.5q0 152 -17.5 237t-62.5 162l-25 33l25 31l250 26v-864q0 -63 59 -63q47 0 100 37l39 -54q-47 -57 -109.5 -93t-115.5 -36q-82 0 -120 47.5t-38 149.5 q-47 -90 -140 -143.5t-206 -53.5q-147 0 -230 89.5t-83 250.5v512q0 45 -41 45h-90zM308 1348q0 38 44 86.5t81 48.5q39 0 84 -47t45 -88q0 -39 -45.5 -86.5t-83.5 -47.5q-35 0 -80 47.5t-45 86.5zM695 1348q0 38 44 86.5t81 48.5q39 0 84 -47t45 -88q0 -39 -45 -86.5 t-84 -47.5q-35 0 -80 47.5t-45 86.5z" />
<glyph unicode="&#xfd;" horiz-adv-x="1249" d="M61 924q53 53 130 88t141 35q29 0 47 -18.5t18 -47.5v-563q0 -123 49.5 -186.5t143.5 -63.5q137 0 214 103.5t77 285.5q0 168 -14.5 250t-65.5 149l-25 33l25 31l250 27v-1092q0 -252 -122 -388t-333 -136q-113 0 -192.5 42t-118.5 108.5t-39 142.5q0 102 69.5 174.5 t190.5 72.5q20 0 29.5 -7t9.5 -15t-29 -39t-50.5 -74t-21.5 -108q0 -82 48.5 -136.5t130.5 -54.5q127 0 186 104.5t59 280.5v303q-47 -90 -141 -142t-207 -52q-145 0 -227 89t-82 251v454q0 25 -9 35t-32 10h-90zM483 1237l320 319q38 -18 62 -52t24 -77q0 -45 -27 -80.5 t-88 -66.5l-232 -115z" />
<glyph unicode="&#xfe;" horiz-adv-x="1218" d="M61 1452v68q33 29 125.5 55.5t159.5 26.5q49 0 49 -95v-592q133 129 295 129q127 0 226.5 -63t154.5 -176t55 -256q0 -164 -58 -296t-160.5 -207t-231.5 -75q-121 0 -205 56q-18 12 -18 36q0 20 7 36t23 16q8 0 46 -16.5t100 -16.5q80 0 144.5 55.5t100 152.5t35.5 218 q0 117 -35.5 208t-100 142t-148.5 51q-125 0 -230 -80v-1146q0 -78 17.5 -110t68.5 -44l43 -10l-22 -64h-357l-24 31l24 33q37 53 51.5 110.5t14.5 153.5v1579q0 33 -9 47t-34 21z" />
<glyph unicode="&#xff;" horiz-adv-x="1249" d="M61 924q53 53 130 88t141 35q29 0 47 -18.5t18 -47.5v-563q0 -123 49.5 -186.5t143.5 -63.5q137 0 214 103.5t77 285.5q0 168 -14.5 250t-65.5 149l-25 33l25 31l250 27v-1092q0 -252 -122 -388t-333 -136q-113 0 -192.5 42t-118.5 108.5t-39 142.5q0 102 69.5 174.5 t190.5 72.5q20 0 29.5 -7t9.5 -15t-29 -39t-50.5 -74t-21.5 -108q0 -82 48.5 -136.5t130.5 -54.5q127 0 186 104.5t59 280.5v303q-47 -90 -141 -142t-207 -52q-145 0 -227 89t-82 251v454q0 25 -9 35t-32 10h-90zM304 1348q0 38 44 86.5t81 48.5q39 0 84 -47t45 -88 q0 -39 -45.5 -86.5t-83.5 -47.5q-35 0 -80 47.5t-45 86.5zM691 1348q0 38 44 86.5t81 48.5q39 0 84 -47t45 -88q0 -39 -45 -86.5t-84 -47.5q-35 0 -80 47.5t-45 86.5z" />
<glyph unicode="&#x152;" horiz-adv-x="1957" d="M72 733q0 209 75.5 376t228 264t374.5 97h753q177 0 234 43l37 27l32 -27v-364l-69 -25l-13 47q-20 76 -43.5 114t-64.5 53.5t-115 15.5h-198q-55 0 -83 -12.5t-38.5 -45t-10.5 -98.5v-393h261q49 0 86.5 21.5t74.5 72.5l17 23l41 -23v-350l-70 -25l-12 47 q-18 70 -64.5 93.5t-158.5 23.5h-175v-416q0 -66 10.5 -98.5t38 -44.5t83.5 -12h221q74 0 114.5 15t64 53t44.5 114l12 47l70 -24v-351l-41 -22l-16 22q-23 29 -86 29h-936q-221 0 -374 96.5t-228.5 262t-75.5 374.5zM293 733q0 -178 57.5 -324.5t165 -231.5t252.5 -85 q111 0 201 51v1153q-111 84 -242 84q-154 0 -251 -93t-140 -239.5t-43 -314.5z" />
<glyph unicode="&#x153;" horiz-adv-x="1871" d="M92 508q0 164 60.5 284.5t174 186t265.5 65.5q131 0 232.5 -48t168.5 -140q70 90 177.5 139t240.5 49q113 0 191.5 -41.5t117.5 -110.5t39 -149q0 -86 -46 -165.5t-134 -130t-211 -50.5q-66 0 -145.5 24.5t-79.5 72.5q0 16 9 30.5t22 14.5q6 0 40.5 -13.5t90.5 -13.5 q123 0 191.5 69.5t68.5 163.5q0 80 -51.5 138.5t-143.5 58.5q-131 0 -204.5 -115.5t-73.5 -330.5q0 -182 77.5 -286t225.5 -104q182 0 299 117q8 8 18 8q17 0 35 -19t18 -40q0 -10 -8 -18q-182 -182 -405 -183q-119 0 -212 46t-157 130q-68 -86 -167 -131t-224 -45 q-152 0 -265.5 65.5t-174 187.5t-60.5 284zM305 506q0 -195 76 -309.5t205 -114.5q84 0 150.5 52t103.5 147.5t37 220.5q0 96 -27 196.5t-89.5 170t-162.5 69.5q-86 0 -152.5 -54.5t-103.5 -152.5t-37 -225z" />
<glyph unicode="&#x178;" horiz-adv-x="1282" d="M10 1438l27 32h461l24 -69l-47 -12q-49 -12 -70.5 -33t-21.5 -58q0 -23 28.5 -70.5t34.5 -58.5l222 -387l231 414q25 47 25 84q0 41 -26 69.5t-60 39.5l-47 12l24 69h389l27 -32l-31 -37q-72 -86 -145 -217l-318 -563v-349q0 -92 29 -131t106 -59l48 -12l-25 -70h-449 l-26 33l26 37q51 72 74 146.5t23 195.5v192l-328 576q-55 98 -98 153.5t-107 104.5zM375 1801q0 38 44 86.5t81 48.5q39 0 84 -47t45 -88q0 -39 -45.5 -86.5t-83.5 -47.5q-35 0 -80 47.5t-45 86.5zM762 1801q0 38 44 86.5t81 48.5q39 0 84 -47t45 -88q0 -39 -45 -86.5 t-84 -47.5q-35 0 -80 47.5t-45 86.5z" />
<glyph unicode="&#x2c6;" horiz-adv-x="765" d="M102 1223q66 115 139.5 207t114.5 116h56q37 -22 112.5 -116.5t139.5 -206.5l-66 -58l-215 170l-213 -170z" />
<glyph unicode="&#x2dc;" horiz-adv-x="835" d="M84 1274q68 92 136.5 145.5t127.5 53.5q31 0 54.5 -10.5t56.5 -28.5q29 -16 45 -24.5t37 -8.5q57 0 139 80l70 -64q-66 -92 -135.5 -145t-127.5 -53q-33 0 -59.5 11t-54.5 30q-27 16 -43.5 23t-36.5 7q-57 0 -137 -80z" />
<glyph unicode="&#x2000;" horiz-adv-x="1010" />
<glyph unicode="&#x2001;" horiz-adv-x="2020" />
<glyph unicode="&#x2002;" horiz-adv-x="1010" />
<glyph unicode="&#x2003;" horiz-adv-x="2020" />
<glyph unicode="&#x2004;" horiz-adv-x="673" />
<glyph unicode="&#x2005;" horiz-adv-x="505" />
<glyph unicode="&#x2006;" horiz-adv-x="336" />
<glyph unicode="&#x2007;" horiz-adv-x="336" />
<glyph unicode="&#x2008;" horiz-adv-x="252" />
<glyph unicode="&#x2009;" horiz-adv-x="404" />
<glyph unicode="&#x200a;" horiz-adv-x="112" />
<glyph unicode="&#x2010;" horiz-adv-x="727" d="M68 516q0 41 13 82t40 61l538 21q0 -43 -12 -83t-41 -60z" />
<glyph unicode="&#x2011;" horiz-adv-x="727" d="M68 516q0 41 13 82t40 61l538 21q0 -43 -12 -83t-41 -60z" />
<glyph unicode="&#x2012;" horiz-adv-x="727" d="M68 516q0 41 13 82t40 61l538 21q0 -43 -12 -83t-41 -60z" />
<glyph unicode="&#x2013;" horiz-adv-x="1595" d="M102 516q0 41 13.5 82t40.5 61l1339 21q0 -43 -12.5 -83t-40.5 -60z" />
<glyph unicode="&#x2014;" horiz-adv-x="1863" d="M102 516q0 41 13.5 82t40.5 61l1603 21q0 -43 -12 -83t-41 -60z" />
<glyph unicode="&#x2018;" horiz-adv-x="460" d="M70 1210q0 57 42 120t126 153l79 86l60 -39l-94 -184q-25 -49 -25 -84q0 -41 47 -76l37 -25l10 -49l-35 -14q-63 -25 -114 -25q-59 0 -96 33t-37 104z" />
<glyph unicode="&#x2019;" horiz-adv-x="460" d="M84 1108l95 184q25 49 24 84q0 41 -47 76l-37 25l-10 49l35 14q63 25 114 25q59 0 96.5 -33t37.5 -105q0 -57 -42 -119.5t-126 -152.5l-80 -86z" />
<glyph unicode="&#x201a;" horiz-adv-x="391" d="M14 -213l95 184q25 49 24 84q0 41 -47 76l-37 25l-10 49l35 14q63 25 114 25q59 0 96.5 -33t37.5 -105q0 -57 -42 -119.5t-126 -152.5l-80 -86z" />
<glyph unicode="&#x201c;" horiz-adv-x="776" d="M70 1210q0 57 42 120t126 153l79 86l60 -39l-94 -184q-25 -49 -25 -84q0 -41 47 -76l37 -25l10 -49l-35 -14q-63 -25 -114 -25q-59 0 -96 33t-37 104zM385 1210q0 57 42 120t126 153l80 86l59 -39l-94 -184q-25 -49 -25 -84q0 -41 48 -76l36 -25l11 -49l-35 -14 q-64 -25 -115 -25q-59 0 -96 33t-37 104z" />
<glyph unicode="&#x201d;" horiz-adv-x="776" d="M84 1108l95 184q25 49 24 84q0 41 -47 76l-37 25l-10 49l35 14q63 25 114 25q59 0 96.5 -33t37.5 -105q0 -57 -42 -119.5t-126 -152.5l-80 -86zM399 1108l95 184q25 49 24 84q0 41 -47 76l-37 25l-10 49l35 14q63 25 114 25q59 0 96.5 -33t37.5 -105q0 -57 -42 -119.5 t-126 -152.5l-80 -86z" />
<glyph unicode="&#x201e;" horiz-adv-x="706" d="M14 -211l95 184q25 49 24 84q0 41 -47 76l-37 25l-10 49l35 14q63 25 114 25q59 0 96.5 -33t37.5 -105q0 -57 -42 -119.5t-126 -152.5l-80 -86zM329 -211l95 184q25 49 24 84q0 41 -47 76l-37 25l-10 49l35 14q63 25 114 25q59 0 96.5 -33t37.5 -105q0 -57 -42 -119.5 t-126 -152.5l-80 -86z" />
<glyph unicode="&#x2022;" horiz-adv-x="544" d="M100 621q0 34 29 77t69 74t70 31q33 0 75 -31t70.5 -74t28.5 -77q0 -35 -28.5 -78t-70.5 -73t-75 -30q-31 0 -70.5 30t-68.5 73t-29 78z" />
<glyph unicode="&#x2026;" horiz-adv-x="1173" d="M68 104q0 39 44 87.5t81 48.5q39 0 84 -47.5t45 -88.5q0 -39 -45.5 -86t-83.5 -47q-35 0 -80 47.5t-45 85.5zM459 104q0 39 44 87.5t81 48.5q39 0 84 -47.5t45 -88.5q0 -39 -45 -86t-84 -47q-35 0 -80 47.5t-45 85.5zM850 104q0 39 44 87.5t81 48.5q39 0 84 -47.5 t45 -88.5q0 -39 -45 -86t-84 -47q-35 0 -80 47.5t-45 85.5z" />
<glyph unicode="&#x202f;" horiz-adv-x="404" />
<glyph unicode="&#x2039;" horiz-adv-x="608" d="M102 571q0 35 46.5 120t181.5 304q51 -4 93 -22.5t83 -71.5q-29 -51 -99.5 -132t-181.5 -198q233 -246 281 -329q-41 -54 -83 -72t-93 -23q-137 223 -182.5 305.5t-45.5 118.5z" />
<glyph unicode="&#x203a;" horiz-adv-x="608" d="M102 242q48 83 281 329q-111 117 -181.5 198t-99.5 132q41 53 83 71.5t94 22.5q135 -219 181 -304t46 -120q0 -37 -45 -118.5t-182 -305.5q-51 4 -93.5 22.5t-83.5 72.5z" />
<glyph unicode="&#x205f;" horiz-adv-x="505" />
<glyph unicode="&#x20ac;" horiz-adv-x="1263" d="M-14 477q0 94 47 129h127q-4 35 -4 109q0 63 2 94h-172q0 94 47 129h141q49 254 200.5 407.5t391.5 153.5q125 0 212 -40t130 -103.5t43 -136.5q0 -88 -61.5 -153t-167.5 -65q-33 0 -33 21q0 6 25.5 32.5t44 64.5t18.5 98q0 72 -57.5 119.5t-153.5 47.5 q-160 0 -251 -124.5t-124 -321.5h395q0 -39 -12 -74t-37 -55h-358q-2 -27 -2 -76q0 -86 4 -127h405q0 -39 -12 -73.5t-37 -55.5h-342q63 -391 336 -391q98 0 172 59.5t74 161.5q0 63 -23.5 106.5t-23.5 49.5q0 20 7 24.5t36 4.5q90 0 147.5 -55.5t57.5 -145.5 q0 -102 -63.5 -174t-165 -109t-212.5 -37q-233 0 -373.5 136.5t-187.5 369.5h-190z" />
<glyph unicode="&#x2122;" horiz-adv-x="2215" d="M205 1270v211l26 22q43 -20 69 -26.5t65 -6.5h409q37 0 64.5 7.5t68.5 25.5l25 -22v-211q-18 -33 -78 -33l-31 149h-180v-704l121 -27q0 -47 -29 -73h-350v55l92 29q12 4 16.5 11t4.5 23v686h-183l-30 -149q-25 0 -47.5 8t-32.5 25zM985 582v55l80 29q20 6 20 34v670 l-98 29q0 20 8.5 39.5t24.5 31.5h213l264 -600q47 100 137 301l135 299h242v-57l-78 -29q-20 -6 -20 -36v-666l98 -27q0 -20 -8 -40.5t-25 -32.5h-309v55l80 29q18 6 18 34v517l-247 -547h-80l-246 540v-528l109 -27q0 -20 -8.5 -40.5t-24.5 -32.5h-285z" />
<glyph unicode="&#x25fc;" horiz-adv-x="1044" d="M0 0v1044h1044v-1044h-1044z" />
<glyph unicode="&#xfb01;" horiz-adv-x="1261" d="M-215 -279q0 78 57.5 131.5t143.5 53.5q39 0 39 -23q0 -6 -16.5 -27.5t-29 -49t-12.5 -70.5q0 -63 32 -99t81 -36q61 0 102 54t41 161v1073h-180q0 55 8 71.5t41 24.5l137 33q25 272 149 428t341 156q133 0 219 -63.5t86 -164.5q0 -88 -57.5 -144t-143.5 -56 q-39 0 -39 22q0 6 14.5 28.5t25 55.5t10.5 84q0 68 -36 106.5t-102 38.5q-150 0 -219 -130t-69 -361h354q53 0 89 6t73 20q29 0 46 -18t17 -47v-799q0 -70 62 -69q51 0 102 43l39 -54q-53 -59 -114.5 -94t-114.5 -35q-84 0 -121 51.5t-37 165.5v656q0 25 -9.5 35t-31.5 10 h-354v-916q0 -213 -93.5 -336.5t-275.5 -123.5q-111 0 -182.5 56t-71.5 152z" />
<glyph unicode="&#xfb02;" horiz-adv-x="1282" d="M-215 -279q0 78 57.5 131.5t143.5 53.5q39 0 39 -23q0 -6 -16.5 -27.5t-29 -49t-12.5 -70.5q0 -63 32 -99t81 -36q61 0 102 54t41 161v1073h-180q0 55 8 71.5t41 24.5l137 33q23 270 140.5 427t320.5 157q106 0 193 -64q35 25 70.5 40t54.5 15q27 0 35 -15t8 -50 l-2 -1348q0 -70 61 -69q51 0 102 43l39 -54q-53 -59 -114.5 -94t-114.5 -35q-84 0 -121 51.5t-37 165.5v1082q0 109 -49 174t-149 65q-133 0 -195.5 -130t-62.5 -361h286q0 -43 -12 -78t-35 -51h-239v-916q0 -213 -93.5 -336.5t-275.5 -123.5q-111 0 -182.5 56t-71.5 152z " />
</font>
</defs>
</svg>
